<svg width="12" height="12" viewBox="0 0 12 12" fill="none" xmlns="http://www.w3.org/2000/svg">
<g clip-path="url(#clip0_3450_3836)">
<path d="M4.29274 4.01892L5.59198 1.26523C5.6298 1.18554 5.68796 1.11851 5.75995 1.07166C5.83194 1.02482 5.91491 1 5.99955 1C6.08419 1 6.16716 1.02482 6.23915 1.07166C6.31114 1.11851 6.3693 1.18554 6.40712 1.26523L7.70636 4.01892L10.6109 4.46313C10.6947 4.47536 10.7735 4.51213 10.8384 4.56924C10.9032 4.62636 10.9515 4.70152 10.9778 4.78615C11.004 4.87077 11.0071 4.96146 10.9867 5.04784C10.9663 5.13423 10.9232 5.21285 10.8624 5.27471L8.76104 7.41682L9.25713 10.4431C9.32064 10.8316 8.93057 11.1274 8.59701 10.9442L5.99955 9.51472L3.40158 10.9442C3.06852 11.1279 2.67845 10.8316 2.74197 10.4426L3.23805 7.41629L1.13668 5.27419C1.07616 5.21228 1.03336 5.13374 1.01314 5.04751C0.992918 4.96127 0.99609 4.8708 1.02229 4.78637C1.0485 4.70194 1.09668 4.62693 1.16137 4.56989C1.22605 4.51284 1.30465 4.47604 1.38822 4.46366L4.29274 4.01892Z" fill="#FFC227" stroke="#FFC227" stroke-width="2" stroke-linecap="round" stroke-linejoin="round"/>
</g>
<g clip-path="url(#clip1_3450_3836)">
<path d="M4.29274 4.01892L5.59198 1.26523C5.6298 1.18554 5.68796 1.11851 5.75995 1.07166C5.83194 1.02482 5.91491 1 5.99955 1C6.08419 1 6.16716 1.02482 6.23915 1.07166C6.31114 1.11851 6.3693 1.18554 6.40712 1.26523L7.70636 4.01892L10.6109 4.46313C10.6947 4.47536 10.7735 4.51213 10.8384 4.56924C10.9032 4.62636 10.9515 4.70152 10.9778 4.78615C11.004 4.87077 11.0071 4.96146 10.9867 5.04784C10.9663 5.13423 10.9232 5.21285 10.8624 5.27471L8.76104 7.41682L9.25713 10.4431C9.32064 10.8316 8.93057 11.1274 8.59701 10.9442L5.99955 9.51472L3.40158 10.9442C3.06852 11.1279 2.67845 10.8316 2.74197 10.4426L3.23805 7.41629L1.13668 5.27419C1.07616 5.21228 1.03336 5.13374 1.01314 5.04751C0.992918 4.96127 0.99609 4.8708 1.02229 4.78637C1.0485 4.70194 1.09668 4.62693 1.16137 4.56989C1.22605 4.51284 1.30465 4.47604 1.38822 4.46366L4.29274 4.01892Z" fill="#DEDEDE" stroke="#DEDEDE" stroke-width="2" stroke-linecap="round" stroke-linejoin="round"/>
</g>
<defs>
<clipPath id="clip0_3450_3836">
<rect width="12" height="12" fill="white"/>
</clipPath>
<clipPath id="clip1_3450_3836">
<rect width="8" height="12" fill="white" transform="translate(4)"/>
</clipPath>
</defs>
</svg>
