<svg width="48" height="48" viewBox="0 0 48 48" fill="none" xmlns="http://www.w3.org/2000/svg">
<circle cx="24" cy="24" r="24" fill="#111111"/>
<g clip-path="url(#clip0_2328_997)">
<path d="M33.18 30.2843C32.8397 31.0704 32.4369 31.794 31.9703 32.4593C31.3342 33.3662 30.8134 33.9939 30.412 34.3425C29.7898 34.9148 29.1231 35.2078 28.4093 35.2245C27.8968 35.2245 27.2788 35.0786 26.5593 34.7828C25.8376 34.4884 25.1742 34.3425 24.5677 34.3425C23.9316 34.3425 23.2494 34.4884 22.5197 34.7828C21.7889 35.0786 21.2002 35.2328 20.7501 35.2481C20.0655 35.2772 19.3832 34.9759 18.7021 34.3425C18.2674 33.9634 17.7237 33.3134 17.0723 32.3926C16.3734 31.4093 15.7989 30.2691 15.3487 28.9691C14.8667 27.565 14.625 26.2053 14.625 24.8889C14.625 23.3811 14.9508 22.0806 15.6034 20.9907C16.1163 20.1153 16.7987 19.4248 17.6527 18.9179C18.5067 18.4109 19.4294 18.1526 20.4231 18.1361C20.9669 18.1361 21.6799 18.3043 22.566 18.6348C23.4496 18.9665 24.0169 19.1347 24.2657 19.1347C24.4516 19.1347 25.0819 18.938 26.1503 18.5459C27.1607 18.1823 28.0135 18.0318 28.712 18.0911C30.605 18.2439 32.0272 18.9901 32.973 20.3345C31.28 21.3603 30.4426 22.7971 30.4592 24.6402C30.4745 26.0759 30.9953 27.2705 32.0189 28.2191C32.4828 28.6594 33.0008 28.9997 33.5772 29.2413C33.4522 29.6038 33.3202 29.951 33.18 30.2843ZM28.8384 13.2001C28.8384 14.3254 28.4273 15.376 27.6079 16.3485C26.6191 17.5046 25.423 18.1726 24.1259 18.0672C24.1094 17.9322 24.0998 17.7901 24.0998 17.6408C24.0998 16.5606 24.5701 15.4045 25.4052 14.4593C25.8221 13.9807 26.3524 13.5827 26.9954 13.2653C27.6371 12.9526 28.244 12.7796 28.8148 12.75C28.8315 12.9004 28.8384 13.0509 28.8384 13.2001V13.2001Z" fill="white"/>
</g>
<defs>
<clipPath id="clip0_2328_997">
<rect width="22.5" height="22.5" fill="white" transform="translate(12.75 12.75)"/>
</clipPath>
</defs>
</svg>
