<svg width="24" height="24" viewBox="0 0 24 24" fill="none" xmlns="http://www.w3.org/2000/svg">
<path d="M13.4707 8.52918C13.397 8.46051 13.3379 8.37771 13.2969 8.28571C13.2559 8.19372 13.2338 8.0944 13.2321 7.9937C13.2303 7.893 13.2488 7.79297 13.2865 7.69958C13.3243 7.60619 13.3804 7.52136 13.4516 7.45014C13.5228 7.37892 13.6077 7.32278 13.7011 7.28505C13.7945 7.24733 13.8945 7.22881 13.9952 7.23059C14.0959 7.23236 14.1952 7.2544 14.2872 7.2954C14.3792 7.33639 14.462 7.39549 14.5307 7.46918L18.5307 11.4692C18.6711 11.6098 18.75 11.8004 18.75 11.9992C18.75 12.1979 18.6711 12.3886 18.5307 12.5292L14.5307 16.5292C14.462 16.6029 14.3792 16.662 14.2872 16.703C14.1952 16.7439 14.0959 16.766 13.9952 16.7678C13.8945 16.7695 13.7945 16.751 13.7011 16.7133C13.6077 16.6756 13.5228 16.6194 13.4516 16.5482C13.3804 16.477 13.3243 16.3922 13.2865 16.2988C13.2488 16.2054 13.2303 16.1054 13.2321 16.0047C13.2338 15.904 13.2559 15.8046 13.2969 15.7126C13.3379 15.6206 13.397 15.5378 13.4707 15.4692L16.1907 12.7492H6.50066C6.30175 12.7492 6.11098 12.6702 5.97033 12.5295C5.82968 12.3889 5.75066 12.1981 5.75066 11.9992C5.75066 11.8003 5.82968 11.6095 5.97033 11.4688C6.11098 11.3282 6.30175 11.2492 6.50066 11.2492H16.1907L13.4707 8.52918Z" fill="#8C8C8C"/>
</svg>
