<svg width="16" height="16" viewBox="0 0 16 16" fill="none" xmlns="http://www.w3.org/2000/svg">
<path d="M11.8333 2.62333V1.75C11.8333 1.61739 11.7807 1.49021 11.6869 1.39645C11.5931 1.30268 11.4659 1.25 11.3333 1.25C11.2007 1.25 11.0735 1.30268 10.9798 1.39645C10.886 1.49021 10.8333 1.61739 10.8333 1.75V2.58333H5.16667V1.75C5.16667 1.61739 5.11399 1.49021 5.02022 1.39645C4.92645 1.30268 4.79927 1.25 4.66667 1.25C4.53406 1.25 4.40688 1.30268 4.31311 1.39645C4.21935 1.49021 4.16667 1.61739 4.16667 1.75V2.62333C3.42355 2.74352 2.74736 3.12397 2.25887 3.69672C1.77039 4.26947 1.50141 4.99723 1.5 5.75V11.5833C1.5 11.9992 1.58191 12.411 1.74105 12.7952C1.90019 13.1794 2.13344 13.5285 2.4275 13.8225C3.02136 14.4164 3.82681 14.75 4.66667 14.75H11.3333C11.7492 14.75 12.161 14.6681 12.5452 14.509C12.9294 14.3498 13.2785 14.1166 13.5725 13.8225C13.8666 13.5285 14.0998 13.1794 14.259 12.7952C14.4181 12.411 14.5 11.9992 14.5 11.5833V5.75C14.4986 4.99723 14.2296 4.26947 13.7411 3.69672C13.2526 3.12397 12.5764 2.74352 11.8333 2.62333ZM5.6 11.9567H4.93333C4.80073 11.9567 4.67355 11.904 4.57978 11.8102C4.48601 11.7165 4.43333 11.5893 4.43333 11.4567C4.43333 11.3241 4.48601 11.1969 4.57978 11.1031C4.67355 11.0093 4.80073 10.9567 4.93333 10.9567H5.6C5.73261 10.9567 5.85979 11.0093 5.95355 11.1031C6.04732 11.1969 6.1 11.3241 6.1 11.4567C6.1 11.5893 6.04732 11.7165 5.95355 11.8102C5.85979 11.904 5.73261 11.9567 5.6 11.9567ZM5.6 9.90333H4.93333C4.80073 9.90333 4.67355 9.85066 4.57978 9.75689C4.48601 9.66312 4.43333 9.53594 4.43333 9.40333C4.43333 9.27073 4.48601 9.14355 4.57978 9.04978C4.67355 8.95601 4.80073 8.90333 4.93333 8.90333H5.6C5.73261 8.90333 5.85979 8.95601 5.95355 9.04978C6.04732 9.14355 6.1 9.27073 6.1 9.40333C6.1 9.53594 6.04732 9.66312 5.95355 9.75689C5.85979 9.85066 5.73261 9.90333 5.6 9.90333ZM8.34 11.9567H7.67333C7.54073 11.9567 7.41355 11.904 7.31978 11.8102C7.22601 11.7165 7.17333 11.5893 7.17333 11.4567C7.17333 11.3241 7.22601 11.1969 7.31978 11.1031C7.41355 11.0093 7.54073 10.9567 7.67333 10.9567H8.34C8.47261 10.9567 8.59979 11.0093 8.69355 11.1031C8.78732 11.1969 8.84 11.3241 8.84 11.4567C8.84 11.5893 8.78732 11.7165 8.69355 11.8102C8.59979 11.904 8.47261 11.9567 8.34 11.9567ZM8.34 9.90333H7.67333C7.54073 9.90333 7.41355 9.85066 7.31978 9.75689C7.22601 9.66312 7.17333 9.53594 7.17333 9.40333C7.17333 9.27073 7.22601 9.14355 7.31978 9.04978C7.41355 8.95601 7.54073 8.90333 7.67333 8.90333H8.34C8.47261 8.90333 8.59979 8.95601 8.69355 9.04978C8.78732 9.14355 8.84 9.27073 8.84 9.40333C8.84 9.53594 8.78732 9.66312 8.69355 9.75689C8.59979 9.85066 8.47261 9.90333 8.34 9.90333ZM11.08 11.9567H10.4133C10.2807 11.9567 10.1535 11.904 10.0598 11.8102C9.96601 11.7165 9.91333 11.5893 9.91333 11.4567C9.91333 11.3241 9.96601 11.1969 10.0598 11.1031C10.1535 11.0093 10.2807 10.9567 10.4133 10.9567H11.08C11.2126 10.9567 11.3398 11.0093 11.4336 11.1031C11.5273 11.1969 11.58 11.3241 11.58 11.4567C11.58 11.5893 11.5273 11.7165 11.4336 11.8102C11.3398 11.904 11.2126 11.9567 11.08 11.9567ZM11.08 9.90333H10.4133C10.2807 9.90333 10.1535 9.85066 10.0598 9.75689C9.96601 9.66312 9.91333 9.53594 9.91333 9.40333C9.91333 9.27073 9.96601 9.14355 10.0598 9.04978C10.1535 8.95601 10.2807 8.90333 10.4133 8.90333H11.08C11.2126 8.90333 11.3398 8.95601 11.4336 9.04978C11.5273 9.14355 11.58 9.27073 11.58 9.40333C11.58 9.53594 11.5273 9.66312 11.4336 9.75689C11.3398 9.85066 11.2126 9.90333 11.08 9.90333ZM13.5 6.57H2.5V5.73667C2.50066 5.25007 2.66559 4.77794 2.96809 4.39679C3.27059 4.01565 3.69293 3.7478 4.16667 3.63667V4.40333C4.16667 4.53594 4.21935 4.66312 4.31311 4.75689C4.40688 4.85066 4.53406 4.90333 4.66667 4.90333C4.79927 4.90333 4.92645 4.85066 5.02022 4.75689C5.11399 4.66312 5.16667 4.53594 5.16667 4.40333V3.57H10.8333V4.40333C10.8333 4.53594 10.886 4.66312 10.9798 4.75689C11.0735 4.85066 11.2007 4.90333 11.3333 4.90333C11.4659 4.90333 11.5931 4.85066 11.6869 4.75689C11.7807 4.66312 11.8333 4.53594 11.8333 4.40333V3.63667C12.3071 3.7478 12.7294 4.01565 13.0319 4.39679C13.3344 4.77794 13.4993 5.25007 13.5 5.73667V6.57Z" fill="#111111" fill-opacity="0.4"/>
</svg>
