<svg width="24" height="32" viewBox="0 0 24 32" fill="none" xmlns="http://www.w3.org/2000/svg">
<path d="M20.3339 14.6649H5.44055L11.9472 8.15826C12.4672 7.63826 12.4672 6.78492 11.9472 6.26493C11.8239 6.14132 11.6773 6.04326 11.5161 5.97635C11.3548 5.90944 11.1818 5.875 11.0072 5.875C10.8326 5.875 10.6597 5.90944 10.4984 5.97635C10.3371 6.04326 10.1906 6.14132 10.0672 6.26493L1.28055 15.0516C1.15695 15.1749 1.05888 15.3215 0.991974 15.4828C0.925065 15.6441 0.890625 15.817 0.890625 15.9916C0.890625 16.1662 0.925065 16.3391 0.991974 16.5004C1.05888 16.6617 1.15695 16.8082 1.28055 16.9316L10.0672 25.7183C10.1907 25.8417 10.3372 25.9396 10.4985 26.0064C10.6598 26.0732 10.8326 26.1076 11.0072 26.1076C11.1818 26.1076 11.3547 26.0732 11.5159 26.0064C11.6772 25.9396 11.8238 25.8417 11.9472 25.7183C12.0707 25.5948 12.1686 25.4483 12.2354 25.287C12.3022 25.1257 12.3366 24.9528 12.3366 24.7783C12.3366 24.6037 12.3022 24.4308 12.2354 24.2695C12.1686 24.1082 12.0707 23.9617 11.9472 23.8383L5.44055 17.3316H20.3339C21.0672 17.3316 21.6672 16.7316 21.6672 15.9983C21.6672 15.2649 21.0672 14.6649 20.3339 14.6649Z" fill="#111111"/>
</svg>
