<svg width="30" height="30" viewBox="0 0 30 30" fill="none" xmlns="http://www.w3.org/2000/svg">
<circle cx="15" cy="15" r="15" fill="#DEDEDE"/>
<path d="M14.9948 18.6667C15.8281 18.6667 16.5366 18.3751 17.1201 17.792C17.7037 17.2089 17.9952 16.5004 17.9948 15.6667C17.9943 14.8329 17.7028 14.1247 17.1201 13.542C16.5375 12.9593 15.829 12.6676 14.9948 12.6667C14.1606 12.6658 13.4523 12.9576 12.8701 13.542C12.2879 14.1264 11.9961 14.8347 11.9948 15.6667C11.9935 16.4987 12.2852 17.2071 12.8701 17.792C13.455 18.3769 14.1632 18.6684 14.9948 18.6667ZM14.9948 17.3333C14.5281 17.3333 14.1337 17.1722 13.8115 16.85C13.4892 16.5278 13.3281 16.1333 13.3281 15.6667C13.3281 15.2 13.4892 14.8056 13.8115 14.4833C14.1337 14.1611 14.5281 14 14.9948 14C15.4615 14 15.8559 14.1611 16.1781 14.4833C16.5003 14.8056 16.6615 15.2 16.6615 15.6667C16.6615 16.1333 16.5003 16.5278 16.1781 16.85C15.8559 17.1722 15.4615 17.3333 14.9948 17.3333ZM9.66146 21C9.29479 21 8.98101 20.8696 8.72013 20.6087C8.45924 20.3478 8.32857 20.0338 8.32812 19.6667V11.6667C8.32812 11.3 8.45879 10.9862 8.72013 10.7253C8.98146 10.4644 9.29524 10.3338 9.66146 10.3333H11.7615L12.9948 9H16.9948L18.2281 10.3333H20.3281C20.6948 10.3333 21.0088 10.464 21.2701 10.7253C21.5315 10.9867 21.6619 11.3004 21.6615 11.6667V19.6667C21.6615 20.0333 21.531 20.3473 21.2701 20.6087C21.0092 20.87 20.6952 21.0004 20.3281 21H9.66146Z" fill="#111111" fill-opacity="0.4"/>
</svg>
