<svg width="18" height="13" viewBox="0 0 18 13" fill="none" xmlns="http://www.w3.org/2000/svg">
<path fill-rule="evenodd" clip-rule="evenodd" d="M16.9557 1.25898C17.19 1.49339 17.3217 1.81127 17.3217 2.14273C17.3217 2.47418 17.19 2.79207 16.9557 3.02648L7.58651 12.3956C7.46269 12.5195 7.31569 12.6177 7.1539 12.6848C6.99212 12.7518 6.81871 12.7863 6.64359 12.7863C6.46847 12.7863 6.29506 12.7518 6.13328 12.6848C5.97149 12.6177 5.82449 12.5195 5.70067 12.3956L1.04567 7.74148C0.926285 7.62617 0.831057 7.48824 0.765546 7.33573C0.700035 7.18323 0.665552 7.0192 0.66411 6.85323C0.662667 6.68725 0.694295 6.52266 0.757146 6.36904C0.819997 6.21542 0.912813 6.07585 1.03018 5.95848C1.14755 5.84112 1.28711 5.7483 1.44073 5.68545C1.59435 5.6226 1.75895 5.59097 1.92492 5.59241C2.0909 5.59386 2.25492 5.62834 2.40743 5.69385C2.55993 5.75936 2.69786 5.85459 2.81317 5.97398L6.64317 9.80398L15.1873 1.25898C15.3034 1.14282 15.4413 1.05067 15.593 0.987805C15.7447 0.924937 15.9073 0.892578 16.0715 0.892578C16.2357 0.892578 16.3983 0.924937 16.55 0.987805C16.7018 1.05067 16.8396 1.14282 16.9557 1.25898Z" fill="#111111"/>
</svg>
