<svg width="18" height="18" viewBox="0 0 18 18" fill="none" xmlns="http://www.w3.org/2000/svg">
<path d="M4.36663 2.72244L8.99863 7.35444L13.6066 2.74644C13.7084 2.6381 13.831 2.55143 13.9671 2.49163C14.1032 2.43183 14.25 2.40013 14.3986 2.39844C14.7169 2.39844 15.0221 2.52487 15.2472 2.74991C15.4722 2.97495 15.5986 3.28018 15.5986 3.59844C15.6014 3.74556 15.5741 3.8917 15.5184 4.0279C15.4627 4.16409 15.3797 4.28746 15.2746 4.39044L10.6066 8.99844L15.2746 13.6664C15.4724 13.8599 15.5884 14.1219 15.5986 14.3984C15.5986 14.7167 15.4722 15.0219 15.2472 15.247C15.0221 15.472 14.7169 15.5984 14.3986 15.5984C14.2457 15.6048 14.0931 15.5793 13.9506 15.5235C13.808 15.4677 13.6786 15.3829 13.5706 15.2744L8.99863 10.6424L4.37863 15.2624C4.27724 15.3672 4.15611 15.4508 4.02224 15.5084C3.88836 15.5661 3.74439 15.5967 3.59863 15.5984C3.28037 15.5984 2.97515 15.472 2.7501 15.247C2.52506 15.0219 2.39863 14.7167 2.39863 14.3984C2.39583 14.2513 2.42313 14.1052 2.47885 13.969C2.53456 13.8328 2.61752 13.7094 2.72263 13.6064L7.39063 8.99844L2.72263 4.33044C2.52485 4.13695 2.40888 3.87493 2.39863 3.59844C2.39863 3.28018 2.52506 2.97495 2.7501 2.74991C2.97515 2.52487 3.28037 2.39844 3.59863 2.39844C3.88663 2.40204 4.16263 2.51844 4.36663 2.72244Z" fill="#111111" fill-opacity="0.4"/>
</svg>
