<svg width="10" height="10" viewBox="0 0 10 10" fill="none" xmlns="http://www.w3.org/2000/svg">
<path d="M2.42547 1.51398L4.99881 4.08732L7.55881 1.52732C7.61535 1.46713 7.68347 1.41898 7.75908 1.38576C7.83469 1.35254 7.91623 1.33493 7.99881 1.33398C8.17562 1.33398 8.34519 1.40422 8.47021 1.52925C8.59523 1.65427 8.66547 1.82384 8.66547 2.00065C8.66703 2.08239 8.65186 2.16358 8.62091 2.23924C8.58996 2.3149 8.54387 2.38344 8.48547 2.44065L5.89214 5.00065L8.48547 7.59398C8.59535 7.70148 8.65978 7.84704 8.66547 8.00065C8.66547 8.17746 8.59523 8.34703 8.47021 8.47206C8.34519 8.59708 8.17562 8.66732 7.99881 8.66732C7.91384 8.67084 7.82907 8.65666 7.74988 8.62567C7.67069 8.59469 7.59881 8.54757 7.53881 8.48732L4.99881 5.91398L2.43214 8.48065C2.37581 8.53883 2.30852 8.58528 2.23414 8.61732C2.15977 8.64936 2.07978 8.66635 1.99881 8.66732C1.822 8.66732 1.65243 8.59708 1.5274 8.47206C1.40238 8.34703 1.33214 8.17746 1.33214 8.00065C1.33059 7.91892 1.34575 7.83773 1.3767 7.76206C1.40766 7.6864 1.45374 7.61786 1.51214 7.56065L4.10547 5.00065L1.51214 2.40732C1.40226 2.29982 1.33783 2.15426 1.33214 2.00065C1.33214 1.82384 1.40238 1.65427 1.5274 1.52925C1.65243 1.40422 1.822 1.33398 1.99881 1.33398C2.15881 1.33598 2.31214 1.40065 2.42547 1.51398Z" fill="#111111"/>
</svg>
