<svg width="14" height="13" viewBox="0 0 14 13" fill="none" xmlns="http://www.w3.org/2000/svg">
<path d="M13.0247 6.12043C13.1674 6.01461 13.2733 5.86699 13.3275 5.69826C13.3816 5.52953 13.3814 5.34815 13.3268 5.17957C13.2721 5.01099 13.1659 4.86364 13.0229 4.7582C12.8799 4.65276 12.7074 4.59451 12.5294 4.59162L9.0738 4.46167C9.05681 4.46051 9.04052 4.45447 9.02689 4.4443C9.01327 4.43413 9.00289 4.42025 8.99701 4.40434L7.8029 1.19384C7.7429 1.0305 7.63393 0.889458 7.49074 0.789809C7.34755 0.690161 7.17705 0.636719 7.00234 0.636719C6.82763 0.636719 6.65713 0.690161 6.51394 0.789809C6.37075 0.889458 6.26178 1.0305 6.20179 1.19384L5.01151 4.41581C5.00563 4.43172 4.99525 4.4456 4.98163 4.45577C4.968 4.46594 4.95171 4.47197 4.93472 4.47314L1.47909 4.60309C1.30117 4.60598 1.12862 4.66423 0.985628 4.76967C0.842639 4.87511 0.736387 5.02245 0.681769 5.19104C0.627151 5.35962 0.626906 5.54099 0.681068 5.70972C0.735231 5.87845 0.841084 6.02608 0.983787 6.1319L3.69454 8.25313C3.7081 8.26375 3.71824 8.27811 3.7237 8.29441C3.72916 8.31071 3.7297 8.32825 3.72525 8.34486L2.79223 11.6356C2.74388 11.8032 2.74857 11.9815 2.80565 12.1464C2.86273 12.3112 2.96943 12.4545 3.11124 12.5568C3.25306 12.6592 3.42309 12.7155 3.59822 12.7182C3.77335 12.7209 3.94507 12.6699 4.09001 12.572L6.95435 10.661C6.96846 10.6513 6.9852 10.6461 7.00234 10.6461C7.01949 10.6461 7.03623 10.6513 7.05034 10.661L9.91467 12.572C10.0577 12.6732 10.2288 12.7276 10.4042 12.7276C10.5797 12.7276 10.7508 12.6732 10.8938 12.572C11.0356 12.4707 11.1424 12.328 11.1995 12.1638C11.2566 11.9995 11.2611 11.8217 11.2125 11.6547L10.2718 8.3525C10.2668 8.33592 10.267 8.31822 10.2725 8.3018C10.278 8.28538 10.2885 8.27106 10.3025 8.26077L13.0247 6.12043Z" fill="#DEDEDE"/>
</svg>
