<svg width="15" height="14" viewBox="0 0 15 14" fill="none" xmlns="http://www.w3.org/2000/svg">
<g clip-path="url(#clip0_766_968)">
<path d="M4.03245 0.621504C4.64491 0.513665 5.27299 0.549239 5.87037 0.725601C6.46776 0.901963 7.01923 1.21462 7.48414 1.64052L7.50974 1.66412L7.53327 1.64266C7.97698 1.24028 8.49862 0.940292 9.0634 0.762723C9.62818 0.585155 10.2231 0.534086 10.8085 0.612923L10.9787 0.638666C11.7166 0.770322 12.4063 1.10574 12.9748 1.60939C13.5432 2.11304 13.9693 2.76619 14.2079 3.49966C14.4465 4.23313 14.4887 5.01962 14.33 5.77584C14.1713 6.53207 13.8177 7.22988 13.3066 7.79537L13.182 7.92767L13.1488 7.95699L7.99345 13.2337C7.87448 13.3554 7.71686 13.4284 7.5498 13.4392C7.38273 13.4499 7.21755 13.3978 7.08486 13.2923L7.01981 13.2337L1.83467 7.92624C1.28538 7.37394 0.894729 6.6753 0.705993 5.9077C0.517257 5.14011 0.537797 4.33351 0.765339 3.57723C0.992881 2.82096 1.41854 2.14452 1.99519 1.62284C2.57183 1.10115 3.27695 0.754581 4.03245 0.621504Z" fill="#111111" fill-opacity="0.4"/>
</g>
<defs>
<clipPath id="clip0_766_968">
<rect width="15" height="14" fill="white"/>
</clipPath>
</defs>
</svg>
