<svg width="20" height="19" viewBox="0 0 20 19" fill="none" xmlns="http://www.w3.org/2000/svg">
<path fill-rule="evenodd" clip-rule="evenodd" d="M9.99989 3.3883C10.9805 2.4979 12.2673 2.00222 13.6041 2C15.0492 2 16.4289 2.58256 17.4386 3.60819C18.4433 4.63465 19.003 6.0028 19 7.42519C19.003 8.84757 18.4433 10.2157 17.4386 11.2422C16.7722 11.9191 16.1066 12.6124 15.4376 13.3082C14.078 14.7228 12.7041 16.1529 11.2766 17.4994L11.2741 17.5026C10.9197 17.8316 10.4471 18.0102 9.95913 17.9996C9.47111 17.989 9.00709 17.79 8.66788 17.446L2.56037 11.2422C0.479878 9.12774 0.479878 5.72264 2.56037 3.60901C3.522 2.62146 4.84169 2.04464 6.23394 2.00333C7.62619 1.96202 8.97906 2.45956 9.99989 3.3883Z" fill="white"/>
<path d="M13.6045 3C14.7064 3.00009 15.7627 3.41648 16.5684 4.15723L16.7256 4.30957C17.4965 5.09798 17.9442 6.12833 17.9951 7.20703L18 7.42285V7.42773C18.0023 8.58409 17.5478 9.7002 16.7256 10.541C16.3899 10.8819 16.0546 11.2268 15.7197 11.5732L14.7168 12.6152C13.3542 14.0329 11.9972 15.4448 10.5908 16.7715L10.584 16.7764C10.4229 16.9217 10.2073 17.0049 9.98047 17L9.89551 16.9941C9.69728 16.9707 9.51514 16.8813 9.37988 16.7441H9.38086L3.27344 10.541C1.62888 8.86961 1.57771 6.208 3.11914 4.47559L3.27344 4.31055L3.27637 4.30664C4.00623 3.5571 4.99505 3.09698 6.05176 3.01465L6.26367 3.00293C7.39955 2.96925 8.5 3.3754 9.32715 4.12793L9.99902 4.73926L10.6719 4.12891C11.4667 3.4072 12.5136 3.00212 13.6045 3Z" stroke="#111111" stroke-opacity="0.4" stroke-width="2"/>
</svg>
