<svg width="35" height="32" viewBox="0 0 35 32" fill="none" xmlns="http://www.w3.org/2000/svg">
<path fill-rule="evenodd" clip-rule="evenodd" d="M17.4998 6.08244C18.9162 4.74685 20.775 4.00332 22.7059 4C24.7932 4 26.7862 4.87384 28.2446 6.41229C29.6959 7.95197 30.5043 10.0042 30.5 12.1378C30.5043 14.2714 29.6959 16.3236 28.2446 17.8633C27.282 18.8787 26.3206 19.9186 25.3543 20.9623C23.3904 23.0842 21.4059 25.2294 19.344 27.249L19.3404 27.254C18.8285 27.7474 18.1459 28.0152 17.441 27.9993C16.7361 27.9834 16.0658 27.6851 15.5758 27.169L6.75386 17.8633C3.74871 14.6916 3.74871 9.58396 6.75386 6.41352C8.14289 4.93219 10.0491 4.06695 12.0601 4.005C14.0712 3.94304 16.0253 4.68934 17.4998 6.08244Z" fill="#111111" fill-opacity="0.4"/>
</svg>
