<svg width="17" height="15" viewBox="0 0 17 15" fill="none" xmlns="http://www.w3.org/2000/svg">
<path d="M8.00221 2.68906L8.49943 3.13011L8.99706 2.68954C9.67415 2.09009 10.5689 1.75165 11.504 1.75C12.5116 1.75016 13.4707 2.14629 14.1703 2.83879C14.869 3.53514 15.252 4.456 15.25 5.40635L15.25 5.40958C15.252 6.35996 14.869 7.28084 14.1702 7.97719C13.6428 8.49951 13.1164 9.03342 12.5914 9.56594L12.4973 9.66133L12.4973 9.6614L12.4846 9.67421C11.3535 10.8216 10.2255 11.9658 9.05618 13.0412L9.0405 13.0556C8.8921 13.1817 8.6929 13.2543 8.48182 13.2498C8.26225 13.2452 8.0602 13.1578 7.91752 13.0169C7.91742 13.0168 7.91732 13.0167 7.91723 13.0166L2.82821 7.97653C2.82816 7.97648 2.82811 7.97643 2.82807 7.97639C1.39054 6.55177 1.39074 4.26393 2.82811 2.84017L2.83097 2.83731C3.49347 2.17397 4.40958 1.78056 5.3833 1.75239C6.35708 1.72422 7.29759 2.06403 8.00221 2.68906Z" fill="white" stroke="#ED2939" stroke-width="1.5"/>
</svg>
