<svg width="15" height="16" viewBox="0 0 15 16" fill="none" xmlns="http://www.w3.org/2000/svg">
<path d="M13.7539 12.1288C13.7539 12.2531 13.7045 12.3723 13.6166 12.4602C13.5287 12.5481 13.4095 12.5975 13.2852 12.5975H10.0977C9.99325 12.9868 9.76334 13.3308 9.44355 13.5761C9.12375 13.8215 8.73196 13.9544 8.32891 13.9544C7.92585 13.9544 7.53406 13.8215 7.21427 13.5761C6.89448 13.3308 6.66456 12.9868 6.56016 12.5975H1.72266C1.59834 12.5975 1.47911 12.5481 1.3912 12.4602C1.30329 12.3723 1.25391 12.2531 1.25391 12.1288C1.25391 12.0045 1.30329 11.8852 1.3912 11.7973C1.47911 11.7094 1.59834 11.66 1.72266 11.66H6.56016C6.66456 11.2707 6.89448 10.9268 7.21427 10.6814C7.53406 10.4361 7.92585 10.3031 8.32891 10.3031C8.73196 10.3031 9.12375 10.4361 9.44355 10.6814C9.76334 10.9268 9.99325 11.2707 10.0977 11.66H13.2852C13.4095 11.66 13.5287 11.7094 13.6166 11.7973C13.7045 11.8852 13.7539 12.0045 13.7539 12.1288ZM13.7539 3.87253C13.7539 3.99685 13.7045 4.11608 13.6166 4.20399C13.5287 4.2919 13.4095 4.34128 13.2852 4.34128H11.7539C11.6495 4.73058 11.4196 5.07456 11.0998 5.31989C10.78 5.56522 10.3882 5.69819 9.98516 5.69819C9.5821 5.69819 9.19031 5.56522 8.87052 5.31989C8.55073 5.07456 8.32081 4.73058 8.21641 4.34128H1.72266C1.6611 4.34128 1.60014 4.32916 1.54327 4.3056C1.4864 4.28205 1.43473 4.24752 1.3912 4.20399C1.34767 4.16046 1.31314 4.10879 1.28959 4.05192C1.26603 3.99504 1.25391 3.93409 1.25391 3.87253C1.25391 3.81098 1.26603 3.75002 1.28959 3.69315C1.31314 3.63628 1.34767 3.5846 1.3912 3.54108C1.43473 3.49755 1.4864 3.46302 1.54327 3.43946C1.60014 3.41591 1.6611 3.40378 1.72266 3.40378H8.21641C8.32081 3.01449 8.55073 2.67051 8.87052 2.42518C9.19031 2.17985 9.5821 2.04688 9.98516 2.04688C10.3882 2.04688 10.78 2.17985 11.0998 2.42518C11.4196 2.67051 11.6495 3.01449 11.7539 3.40378H13.2852C13.3469 3.40294 13.4083 3.41449 13.4655 3.43775C13.5228 3.46101 13.5748 3.49551 13.6185 3.5392C13.6622 3.5829 13.6967 3.63491 13.7199 3.69216C13.7432 3.74941 13.7547 3.81074 13.7539 3.87253ZM13.7539 7.99753C13.7547 8.05932 13.7432 8.12066 13.7199 8.17791C13.6967 8.23516 13.6622 8.28717 13.6185 8.33086C13.5748 8.37456 13.5228 8.40906 13.4655 8.43231C13.4083 8.45557 13.3469 8.46712 13.2852 8.46628H5.97266C5.86826 8.85558 5.63834 9.19956 5.31854 9.44489C4.99875 9.69022 4.60696 9.82319 4.20391 9.82319C3.80085 9.82319 3.40906 9.69022 3.08927 9.44489C2.76948 9.19956 2.53956 8.85558 2.43516 8.46628H1.72266C1.59834 8.46628 1.47911 8.4169 1.3912 8.32899C1.30329 8.24108 1.25391 8.12185 1.25391 7.99753C1.25391 7.87321 1.30329 7.75398 1.3912 7.66608C1.47911 7.57817 1.59834 7.52878 1.72266 7.52878H2.43516C2.53956 7.13949 2.76948 6.79551 3.08927 6.55018C3.40906 6.30485 3.80085 6.17188 4.20391 6.17188C4.60696 6.17188 4.99875 6.30485 5.31854 6.55018C5.63834 6.79551 5.86826 7.13949 5.97266 7.52878H13.2852C13.4095 7.52878 13.5287 7.57817 13.6166 7.66608C13.7045 7.75398 13.7539 7.87321 13.7539 7.99753Z" fill="#111111"/>
</svg>
