<svg width="48" height="48" viewBox="0 0 48 48" fill="none" xmlns="http://www.w3.org/2000/svg">
<circle cx="24" cy="24" r="24" fill="#EA4335"/>
<g clip-path="url(#clip0_2328_1001)">
<path d="M24 21.9531V26.31H30.0545C29.7887 27.7111 28.9908 28.8975 27.7943 29.6952L31.4454 32.5282C33.5727 30.5646 34.7999 27.6805 34.7999 24.2544C34.7999 23.4567 34.7284 22.6895 34.5954 21.9532L24 21.9531Z" fill="white"/>
<path d="M17.6953 26.1406L16.8719 26.771L13.957 29.0414C15.8082 32.713 19.6022 35.2494 23.9999 35.2494C27.0373 35.2494 29.5839 34.2471 31.4453 32.5289L27.7942 29.696C26.7919 30.371 25.5135 30.7801 23.9999 30.7801C21.0749 30.7801 18.5898 28.8062 17.6999 26.1471L17.6953 26.1406Z" fill="white"/>
<path d="M13.9567 18.957C13.1897 20.4706 12.75 22.1786 12.75 23.999C12.75 25.8194 13.1897 27.5274 13.9567 29.041C13.9567 29.0511 17.7 26.1364 17.7 26.1364C17.475 25.4614 17.342 24.7456 17.342 23.9989C17.342 23.2522 17.475 22.5363 17.7 21.8613L13.9567 18.957Z" fill="white"/>
<path d="M24.0001 17.2295C25.657 17.2295 27.1297 17.8023 28.3058 18.9068L31.5274 15.6853C29.5739 13.8648 27.0377 12.75 24.0001 12.75C19.6024 12.75 15.8082 15.2761 13.957 18.958L17.7002 21.8625C18.5899 19.2034 21.0751 17.2295 24.0001 17.2295Z" fill="white"/>
</g>
<defs>
<clipPath id="clip0_2328_1001">
<rect width="22.5" height="22.5" fill="white" transform="translate(12.75 12.75)"/>
</clipPath>
</defs>
</svg>
