<svg width="14" height="14" viewBox="0 0 14 14" fill="none" xmlns="http://www.w3.org/2000/svg">
<g clip-path="url(#clip0_1237_2834)">
<path d="M13.0247 6.12043C13.1674 6.01461 13.2733 5.86699 13.3275 5.69826C13.3816 5.52953 13.3814 5.34815 13.3268 5.17957C13.2721 5.01099 13.1659 4.86364 13.0229 4.7582C12.8799 4.65276 12.7074 4.59451 12.5294 4.59162L9.0738 4.46167C9.05681 4.46051 9.04052 4.45447 9.02689 4.4443C9.01327 4.43413 9.00289 4.42025 8.99701 4.40434L7.8029 1.19384C7.7429 1.0305 7.63393 0.889458 7.49074 0.789809C7.34755 0.690161 7.17705 0.636719 7.00234 0.636719C6.82763 0.636719 6.65713 0.690161 6.51394 0.789809C6.37075 0.889458 6.26178 1.0305 6.20179 1.19384L5.01151 4.41581C5.00563 4.43172 4.99525 4.4456 4.98163 4.45577C4.968 4.46594 4.95171 4.47197 4.93472 4.47314L1.47909 4.60309C1.30117 4.60598 1.12862 4.66423 0.985628 4.76967C0.842639 4.87511 0.736387 5.02245 0.681769 5.19104C0.627151 5.35962 0.626906 5.54099 0.681068 5.70972C0.735231 5.87845 0.841084 6.02608 0.983787 6.1319L3.69454 8.25313C3.7081 8.26375 3.71824 8.27811 3.7237 8.29441C3.72916 8.31071 3.7297 8.32825 3.72525 8.34486L2.79223 11.6356C2.74388 11.8032 2.74857 11.9815 2.80565 12.1464C2.86273 12.3112 2.96943 12.4545 3.11124 12.5568C3.25306 12.6592 3.42309 12.7155 3.59822 12.7182C3.77335 12.7209 3.94507 12.6699 4.09001 12.572L6.95435 10.661C6.96846 10.6513 6.9852 10.6461 7.00234 10.6461C7.01949 10.6461 7.03623 10.6513 7.05034 10.661L9.91467 12.572C10.0577 12.6732 10.2288 12.7276 10.4042 12.7276C10.5797 12.7276 10.7508 12.6732 10.8938 12.572C11.0356 12.4707 11.1424 12.328 11.1995 12.1638C11.2566 11.9995 11.2611 11.8217 11.2125 11.6547L10.2718 8.3525C10.2668 8.33592 10.267 8.31822 10.2725 8.3018C10.278 8.28538 10.2885 8.27106 10.3025 8.26077L13.0247 6.12043Z" fill="#FFB800" fill-opacity="0.8"/>
<g clip-path="url(#clip1_1237_2834)">
<path d="M13.8408 5.90554C14.0039 5.79158 14.1248 5.6326 14.1867 5.45089C14.2486 5.26918 14.2484 5.07385 14.1859 4.8923C14.1235 4.71075 14.0021 4.55207 13.8387 4.43852C13.6752 4.32497 13.478 4.26224 13.2747 4.25913L9.32541 4.11918C9.306 4.11792 9.28738 4.11143 9.27181 4.10047C9.25624 4.08952 9.24438 4.07457 9.23765 4.05744L7.87295 0.599974C7.80438 0.424071 7.67985 0.27218 7.5162 0.164867C7.35256 0.057553 7.15771 0 6.95803 0C6.75836 0 6.56351 0.057553 6.39986 0.164867C6.23622 0.27218 6.11168 0.424071 6.04311 0.599974L4.6828 4.06979C4.67608 4.08692 4.66422 4.10187 4.64865 4.11282C4.63307 4.12378 4.61446 4.13027 4.59504 4.13153L0.64575 4.27148C0.442408 4.27459 0.245204 4.33732 0.0817888 4.45087C-0.0816264 4.56442 -0.203058 4.7231 -0.265478 4.90465C-0.327899 5.0862 -0.328179 5.28153 -0.266279 5.46324C-0.204379 5.64494 -0.0834036 5.80393 0.0796854 5.91789L3.17768 8.20229C3.19319 8.21373 3.20478 8.22919 3.21102 8.24674C3.21726 8.2643 3.21787 8.28319 3.21279 8.30107L2.14648 11.845C2.09122 12.0254 2.09658 12.2175 2.16181 12.395C2.22705 12.5725 2.34899 12.7269 2.51107 12.8371C2.67314 12.9472 2.86746 13.0079 3.06761 13.0109C3.26776 13.0138 3.46401 12.9588 3.62966 12.8534L6.90318 10.7954C6.91931 10.7849 6.93844 10.7793 6.95803 10.7793C6.97763 10.7793 6.99676 10.7849 7.01289 10.7954L10.2864 12.8534C10.4498 12.9624 10.6454 13.021 10.8459 13.021C11.0464 13.021 11.242 12.9624 11.4054 12.8534C11.5675 12.7442 11.6896 12.5907 11.7548 12.4137C11.82 12.2368 11.8252 12.0453 11.7696 11.8656L10.6945 8.3093C10.6888 8.29145 10.6891 8.27238 10.6954 8.2547C10.7017 8.23702 10.7136 8.22159 10.7296 8.21052L13.8408 5.90554Z" fill="#DEDEDE"/>
</g>
</g>
<defs>
<clipPath id="clip0_1237_2834">
<rect width="14" height="14" fill="white"/>
</clipPath>
<clipPath id="clip1_1237_2834">
<rect width="7.63636" height="14" fill="white" transform="translate(7.32031)"/>
</clipPath>
</defs>
</svg>
