<svg width="24" height="24" viewBox="0 0 24 24" fill="none" xmlns="http://www.w3.org/2000/svg">
<path fill-rule="evenodd" clip-rule="evenodd" d="M11.9999 3.73537C13.1984 2.62237 14.7712 2.00277 16.405 2C18.1712 2 19.8575 2.7282 21.0916 4.01024C22.3196 5.29331 23.0036 7.0035 23 8.78149C23.0036 10.5595 22.3196 12.2697 21.0916 13.5527C20.2771 14.3989 19.4636 15.2655 18.646 16.1353C16.9842 17.9035 15.305 19.6911 13.5603 21.3742L13.5573 21.3783C13.1241 21.7895 12.5465 22.0127 11.95 21.9994C11.3536 21.9862 10.7864 21.7375 10.3718 21.3075L2.90711 13.5527C0.364295 10.9097 0.364295 6.6533 2.90711 4.01127C4.08245 2.77682 5.6954 2.05579 7.39704 2.00416C9.09868 1.95253 10.7522 2.57445 11.9999 3.73537Z" fill="#111111" fill-opacity="0.4"/>
</svg>
