<?xml version="1.0" standalone="no"?>
<!DOCTYPE svg PUBLIC "-//W3C//DTD SVG 20010904//EN"
 "http://www.w3.org/TR/2001/REC-SVG-20010904/DTD/svg10.dtd">
<svg version="1.0" xmlns="http://www.w3.org/2000/svg"
 width="152.000000pt" height="112.000000pt" viewBox="0 0 152.000000 112.000000"
 preserveAspectRatio="xMidYMid meet">
<metadata>
Created by potrace 1.16, written by Peter Selinger 2001-2019
</metadata>
<g transform="translate(0.000000,112.000000) scale(0.100000,-0.100000)"
fill="#000000" stroke="none">
<path d="M1116 853 c-31 -43 -56 -82 -55 -88 0 -10 303 -242 363 -279 17 -10
46 -27 64 -38 l32 -20 0 151 0 151 -72 36 c-40 20 -113 62 -163 94 -49 31 -95
60 -102 63 -7 5 -33 -22 -67 -70z"/>
<path d="M220 581 c-80 -27 -162 -55 -182 -64 l-38 -16 0 -116 0 -115 58 29
c31 16 118 53 192 84 74 30 147 61 162 67 l26 12 -23 67 c-31 89 -36 101 -44
100 -3 0 -71 -22 -151 -48z"/>
<path d="M675 370 c-21 -5 -2 -8 69 -9 85 -1 97 -3 92 -17 -3 -9 -6 -18 -6
-20 0 -2 -7 -4 -15 -4 -8 0 -12 -6 -9 -14 5 -12 -13 -15 -98 -18 -57 -2 -123
1 -147 6 -27 5 -46 4 -50 -2 -3 -5 -26 -13 -51 -17 -25 -4 -60 -14 -79 -21
-33 -14 -33 -15 -16 -34 18 -19 17 -20 -8 -20 -15 0 -27 -3 -27 -7 -6 -89 -4
-110 9 -109 8 1 16 -5 19 -13 3 -10 -1 -12 -17 -8 -11 3 -21 1 -21 -3 0 -5
196 -9 435 -9 239 0 435 3 435 8 0 4 -16 5 -37 3 -32 -4 -35 -3 -28 14 4 11
10 27 12 37 3 9 9 17 14 17 15 0 10 113 -6 143 -12 24 -12 28 0 32 8 3 23 8
33 12 16 6 16 6 -1 10 -27 7 -67 -5 -64 -19 3 -17 -28 -21 -44 -6 -8 7 -39 26
-69 43 -52 28 -63 30 -175 32 -66 1 -133 -2 -150 -7z"/>
</g>
</svg>
