<svg width="18" height="18" viewBox="0 0 18 18" fill="none" xmlns="http://www.w3.org/2000/svg">
<rect y="0.5" width="15.9988" height="8.00014" rx="0.972973" fill="#111111" fill-opacity="0.4"/>
<rect y="10.5" width="9.99925" height="2.00004" rx="0.972973" fill="#111111" fill-opacity="0.4"/>
<rect y="14.5" width="7.9994" height="2.00004" rx="0.972973" fill="#111111" fill-opacity="0.4"/>
<g clip-path="url(#clip0_766_911)">
<path d="M14.7622 10.767C14.7622 10.347 14.4197 10.002 13.9972 10.002C13.5748 10.002 13.2298 10.347 13.2323 10.767V12.7345H11.2649C10.845 12.7345 10.5 13.077 10.5 13.4995C10.5 13.9195 10.845 14.2645 11.2649 14.2645H13.2323V16.2296C13.2323 16.6496 13.5748 16.9946 13.9972 16.9946C14.4172 16.9946 14.7622 16.6521 14.7622 16.2296V14.2645H16.727C17.147 14.2645 17.492 13.922 17.492 13.4995C17.492 13.0795 17.1495 12.7345 16.727 12.7345H14.7622V10.767Z" fill="#111111" fill-opacity="0.4"/>
</g>
<defs>
<clipPath id="clip0_766_911">
<rect width="7.9994" height="8.00014" fill="white" transform="translate(10 9.5)"/>
</clipPath>
</defs>
</svg>
