<svg width="35" height="35" viewBox="0 0 35 35" fill="none" xmlns="http://www.w3.org/2000/svg">
<circle cx="17.5" cy="17.5" r="17.5" fill="#ED2939"/>
<rect x="9" y="9" width="15.1105" height="7.52982" rx="0.972973" fill="white"/>
<rect x="9" y="18.4121" width="9.44405" height="1.88246" rx="0.941228" fill="white"/>
<rect x="9" y="22.1758" width="7.55524" height="1.88246" rx="0.941228" fill="white"/>
<g clip-path="url(#clip0_1675_4754)">
<path d="M22.9435 18.6634C22.9435 18.2681 22.62 17.9434 22.221 17.9434C21.822 17.9434 21.4962 18.2681 21.4986 18.6634V20.5153H19.6404C19.2438 20.5153 18.918 20.8376 18.918 21.2353C18.918 21.6306 19.2438 21.9553 19.6404 21.9553H21.4986V23.8049C21.4986 24.2002 21.822 24.5249 22.221 24.5249C22.6177 24.5249 22.9435 24.2025 22.9435 23.8049V21.9553H24.7992C25.1959 21.9553 25.5217 21.633 25.5217 21.2353C25.5217 20.84 25.1983 20.5153 24.7992 20.5153H22.9435V18.6634Z" fill="white"/>
</g>
<defs>
<clipPath id="clip0_1675_4754">
<rect width="7.55524" height="7.52982" fill="white" transform="translate(18.4453 17.4707)"/>
</clipPath>
</defs>
</svg>
