<svg width="16" height="22" viewBox="0 0 16 22" fill="none" xmlns="http://www.w3.org/2000/svg">
<path fill-rule="evenodd" clip-rule="evenodd" d="M7.262 20.9289C7.262 20.9289 0 14.8129 0 8.79492C0 6.67319 0.842855 4.63836 2.34315 3.13807C3.84344 1.63778 5.87827 0.794922 8 0.794922C10.1217 0.794922 12.1566 1.63778 13.6569 3.13807C15.1571 4.63836 16 6.67319 16 8.79492C16 14.8129 8.738 20.9289 8.738 20.9289C8.334 21.3009 7.669 21.2969 7.262 20.9289ZM8 12.2949C8.45963 12.2949 8.91475 12.2044 9.33939 12.0285C9.76403 11.8526 10.1499 11.5948 10.4749 11.2698C10.7999 10.9448 11.0577 10.559 11.2336 10.1343C11.4095 9.70967 11.5 9.25455 11.5 8.79492C11.5 8.3353 11.4095 7.88017 11.2336 7.45553C11.0577 7.03089 10.7999 6.64505 10.4749 6.32005C10.1499 5.99504 9.76403 5.73724 9.33939 5.56134C8.91475 5.38545 8.45963 5.29492 8 5.29492C7.07174 5.29492 6.1815 5.66367 5.52513 6.32005C4.86875 6.97643 4.5 7.86666 4.5 8.79492C4.5 9.72318 4.86875 10.6134 5.52513 11.2698C6.1815 11.9262 7.07174 12.2949 8 12.2949Z" fill="#ED2939"/>
</svg>
