<svg width="16" height="17" viewBox="0 0 16 17" fill="none" xmlns="http://www.w3.org/2000/svg">
<path fill-rule="evenodd" clip-rule="evenodd" d="M7.51321 15.2567C7.51321 15.2567 2.67188 11.1793 2.67188 7.16732C2.67188 5.75283 3.23378 4.39628 4.23397 3.39608C5.23417 2.39589 6.59072 1.83398 8.00521 1.83398C9.4197 1.83398 10.7763 2.39589 11.7764 3.39608C12.7766 4.39628 13.3385 5.75283 13.3385 7.16732C13.3385 11.1793 8.49721 15.2567 8.49721 15.2567C8.22788 15.5047 7.78454 15.502 7.51321 15.2567ZM8.00521 9.50065C8.31163 9.50065 8.61504 9.4403 8.89814 9.32304C9.18123 9.20578 9.43845 9.0339 9.65512 8.81723C9.87179 8.60056 10.0437 8.34334 10.1609 8.06025C10.2782 7.77715 10.3385 7.47374 10.3385 7.16732C10.3385 6.8609 10.2782 6.55748 10.1609 6.27439C10.0437 5.9913 9.87179 5.73407 9.65512 5.5174C9.43845 5.30073 9.18123 5.12886 8.89814 5.0116C8.61504 4.89434 8.31163 4.83398 8.00521 4.83398C7.38637 4.83398 6.79288 5.07982 6.35529 5.5174C5.91771 5.95499 5.67188 6.54848 5.67188 7.16732C5.67188 7.78616 5.91771 8.37965 6.35529 8.81723C6.79288 9.25482 7.38637 9.50065 8.00521 9.50065Z" fill="#ED2939"/>
</svg>
