<svg width="21" height="22" viewBox="0 0 21 22" fill="none" xmlns="http://www.w3.org/2000/svg">
<g clip-path="url(#clip0_2308_203)">
<path d="M20.195 10.8412C20.1984 12.1349 19.9438 13.4164 19.4461 14.6108C18.9568 15.8074 18.2294 16.8923 17.3079 17.7997C16.3944 18.714 15.3096 19.4397 14.1155 19.9355C12.9197 20.4326 11.6368 20.6869 10.3417 20.6835C9.02735 20.6896 7.72588 20.4249 6.5186 19.9059L2.92214 20.4374C2.61413 20.4881 2.29839 20.4626 2.00251 20.3632C1.70663 20.2639 1.43961 20.0936 1.22479 19.8674C1.00997 19.6412 0.853885 19.3658 0.770173 19.0654C0.686461 18.765 0.67767 18.4487 0.744567 18.1442L1.23723 14.5517C0.746365 13.3766 0.498351 12.1145 0.508088 10.8412C0.503358 9.55053 0.758003 8.27203 1.25694 7.08145C1.7492 5.88594 2.4724 4.799 3.38525 3.8827C4.30035 2.9676 5.38706 2.24165 6.58323 1.74634C7.7794 1.25103 9.06158 0.996094 10.3565 0.996094C11.6513 0.996094 12.9335 1.25103 14.1297 1.74634C15.3258 2.24165 16.4125 2.9676 17.3277 3.8827C18.2502 4.79302 18.9777 5.88135 19.4658 7.08145C19.958 8.27342 20.2059 9.55187 20.195 10.8412Z" fill="#111111" fill-opacity="0.4"/>
</g>
<defs>
<clipPath id="clip0_2308_203">
<rect width="21" height="21" fill="white" transform="translate(0 0.5)"/>
</clipPath>
</defs>
</svg>
