<svg width="32" height="32" viewBox="0 0 32 32" fill="none" xmlns="http://www.w3.org/2000/svg">
<path d="M27.9996 16.0017C28.0037 17.5788 27.6934 19.1409 27.0867 20.597C26.4903 22.0557 25.6035 23.3782 24.4802 24.4844C23.3665 25.599 22.0441 26.4836 20.5884 27.088C19.1307 27.694 17.5668 28.004 15.9879 27.9999C14.3857 28.0074 12.7992 27.6847 11.3274 27.052L6.94319 27.6999C6.5677 27.7617 6.1828 27.7306 5.8221 27.6095C5.46141 27.4883 5.1359 27.2808 4.87403 27.005C4.61215 26.7292 4.42188 26.3936 4.31983 26.0274C4.21778 25.6612 4.20706 25.2756 4.28862 24.9043L4.8892 20.525C4.29081 19.0924 3.98847 17.5539 4.00034 16.0017C3.99457 14.4283 4.30499 12.8697 4.91322 11.4183C5.51331 9.96095 6.39493 8.63592 7.50773 7.51892C8.62329 6.40336 9.94803 5.51839 11.4062 4.91459C12.8644 4.31079 14.4274 4 16.006 4C17.5845 4 19.1475 4.31079 20.6057 4.91459C22.0639 5.51839 23.3886 6.40336 24.5042 7.51892C25.6289 8.62863 26.5157 9.95536 27.1107 11.4183C27.7107 12.8714 28.013 14.4299 27.9996 16.0017Z" fill="#969696"/>
</svg>
