<svg width="32" height="32" viewBox="0 0 32 32" fill="none" xmlns="http://www.w3.org/2000/svg">
<rect x="4" y="4" width="22" height="22" rx="4" fill="#DEDEDE"/>
<rect x="6" y="6" width="22" height="22" rx="4" fill="#969696"/>
<path d="M17.9961 12C17.9961 11.7348 17.8907 11.4804 17.7032 11.2929C17.5157 11.1054 17.2613 11 16.9961 11C16.7309 11 16.4765 11.1054 16.289 11.2929C16.1015 11.4804 15.9961 11.7348 15.9961 12V16H11.9961C11.7309 16 11.4765 16.1054 11.289 16.2929C11.1015 16.4804 10.9961 16.7348 10.9961 17C10.9961 17.2652 11.1015 17.5196 11.289 17.7071C11.4765 17.8946 11.7309 18 11.9961 18H15.9961V22C15.9961 22.2652 16.1015 22.5196 16.289 22.7071C16.4765 22.8946 16.7309 23 16.9961 23C17.2613 23 17.5157 22.8946 17.7032 22.7071C17.8907 22.5196 17.9961 22.2652 17.9961 22V18H21.9961C22.2613 18 22.5157 17.8946 22.7032 17.7071C22.8907 17.5196 22.9961 17.2652 22.9961 17C22.9961 16.7348 22.8907 16.4804 22.7032 16.2929C22.5157 16.1054 22.2613 16 21.9961 16H17.9961V12Z" fill="white"/>
</svg>
