<svg width="16" height="20" viewBox="0 0 16 20" fill="none" xmlns="http://www.w3.org/2000/svg">
<g clip-path="url(#clip0_2308_201)">
<path d="M8.00002 20C9.26145 20 10.2847 18.8809 10.2847 17.5H5.71538C5.71538 18.8809 6.7386 20 8.00002 20ZM15.6925 14.152C15.0025 13.341 13.7115 12.1211 13.7115 8.125C13.7115 5.08984 11.7657 2.66016 9.14217 2.06406V1.25C9.14217 0.559766 8.63074 0 8.00002 0C7.36931 0 6.85788 0.559766 6.85788 1.25V2.06406C4.23431 2.66016 2.2886 5.08984 2.2886 8.125C2.2886 12.1211 0.997525 13.341 0.307525 14.152C0.093239 14.4039 -0.00176102 14.7051 2.46924e-05 15C0.00395326 15.6406 0.463596 16.25 1.14645 16.25H14.8536C15.5365 16.25 15.9965 15.6406 16 15C16.0018 14.7051 15.9068 14.4035 15.6925 14.152Z" fill="#111111" fill-opacity="0.4"/>
</g>
<defs>
<clipPath id="clip0_2308_201">
<rect width="16" height="20" fill="white"/>
</clipPath>
</defs>
</svg>
