<svg width="48" height="48" viewBox="0 0 48 48" fill="none" xmlns="http://www.w3.org/2000/svg">
<circle cx="24" cy="24" r="24" fill="#FF8800"/>
<path d="M7.5 24C7.5 14.8873 14.8873 7.5 24 7.5C33.1127 7.5 40.5 14.8873 40.5 24C40.5 33.1127 33.1127 40.5 24 40.5C14.8873 40.5 7.5 33.1127 7.5 24Z" fill="#FF8800"/>
<path fill-rule="evenodd" clip-rule="evenodd" d="M29.0267 19.3287C29.0267 22.0813 26.7827 24.3253 24.0299 24.3253C21.2474 24.3253 19.0034 22.0813 19.0034 19.3287C19.0034 16.576 21.2474 14.332 24.0299 14.332C26.7827 14.332 29.0267 16.576 29.0267 19.3287ZM26.0945 19.3287C26.0945 18.1917 25.1669 17.2642 24.0299 17.2642C22.8631 17.2642 21.9355 18.1917 21.9655 19.3287C21.9655 20.4657 22.8931 21.3931 24.0299 21.3931C25.1669 21.3931 26.0945 20.4657 26.0945 19.3287Z" fill="white"/>
<path d="M28.9369 27.2277C28.0393 27.7961 27.0519 28.1851 26.0347 28.4245L28.8771 31.1771C29.4455 31.7457 29.4455 32.6731 28.8771 33.2417C28.3087 33.8101 27.3811 33.8101 26.8127 33.2417L24.0599 30.4889L21.3073 33.2417C21.0081 33.5109 20.6491 33.6605 20.2601 33.6605C19.8711 33.6605 19.5121 33.5409 19.2129 33.2417C18.6444 32.6731 18.6444 31.7457 19.2129 31.1771L21.9955 28.3945C20.9782 28.1551 19.9908 27.7663 19.0932 27.1977C18.405 26.7789 18.1956 25.8813 18.5846 25.1931C19.0334 24.5049 19.931 24.3255 20.6191 24.7443C22.6537 26.0309 25.3165 26.0309 27.3511 24.7443C28.0393 24.2955 28.9669 24.5049 29.3857 25.1931C29.8345 25.8813 29.6251 26.8087 28.9369 27.2277Z" fill="white"/>
</svg>
