<svg width="40" height="40" viewBox="0 0 40 40" fill="none" xmlns="http://www.w3.org/2000/svg">
<path d="M0 20C0 8.95431 8.95431 0 20 0C31.0457 0 40 8.95431 40 20C40 31.0457 31.0457 40 20 40C8.95431 40 0 31.0457 0 20Z" fill="#FF8800"/>
<path fill-rule="evenodd" clip-rule="evenodd" d="M26.0953 14.3378C26.0953 17.6743 23.3753 20.3943 20.0387 20.3943C16.6659 20.3943 13.9459 17.6743 13.9459 14.3378C13.9459 11.0013 16.6659 8.28125 20.0387 8.28125C23.3753 8.28125 26.0953 11.0013 26.0953 14.3378ZM22.5412 14.3378C22.5412 12.9597 21.4168 11.8354 20.0387 11.8354C18.6243 11.8354 17.5 12.9597 17.5363 14.3378C17.5363 15.716 18.6607 16.8402 20.0387 16.8402C21.4168 16.8402 22.5412 15.716 22.5412 14.3378Z" fill="white"/>
<path d="M25.9865 23.9123C24.8985 24.6013 23.7017 25.0728 22.4687 25.363L25.914 28.6995C26.603 29.3887 26.603 30.5128 25.914 31.202C25.225 31.891 24.1007 31.891 23.4117 31.202L20.075 27.8653L16.7385 31.202C16.3758 31.5283 15.9406 31.7097 15.4692 31.7097C14.9977 31.7097 14.5625 31.5647 14.1998 31.202C13.5107 30.5128 13.5107 29.3887 14.1998 28.6995L17.5727 25.3267C16.3396 25.0365 15.1428 24.5652 14.0548 23.876C13.2206 23.3683 12.9667 22.2803 13.4382 21.4462C13.9822 20.612 15.0702 20.3945 15.9044 20.9022C18.3705 22.4617 21.5982 22.4617 24.0643 20.9022C24.8985 20.3582 26.0228 20.612 26.5305 21.4462C27.0745 22.2803 26.8207 23.4045 25.9865 23.9123Z" fill="white"/>
</svg>
