<svg width="44" height="44" viewBox="0 0 44 44" fill="none" xmlns="http://www.w3.org/2000/svg">
<path d="M21.9987 8.70703C23.2637 8.70703 24.2904 9.7337 24.2904 10.9987V19.707H32.9987C33.6065 19.707 34.1894 19.9485 34.6192 20.3782C35.0489 20.808 35.2904 21.3909 35.2904 21.9987C35.2904 22.6065 35.0489 23.1894 34.6192 23.6192C34.1894 24.0489 33.6065 24.2904 32.9987 24.2904H24.2904V32.9987C24.2904 33.6065 24.0489 34.1894 23.6192 34.6192C23.1894 35.0489 22.6065 35.2904 21.9987 35.2904C21.3909 35.2904 20.808 35.0489 20.3782 34.6192C19.9485 34.1894 19.707 33.6065 19.707 32.9987V24.2904H10.9987C10.3909 24.2904 9.80802 24.0489 9.37824 23.6192C8.94847 23.1894 8.70703 22.6065 8.70703 21.9987C8.70703 21.3909 8.94847 20.808 9.37824 20.3782C9.80802 19.9485 10.3909 19.707 10.9987 19.707H19.707V10.9987C19.707 9.7337 20.7337 8.70703 21.9987 8.70703Z" fill="#111111" fill-opacity="0.51"/>
</svg>
