<svg width="22" height="22" viewBox="0 0 22 22" fill="none" xmlns="http://www.w3.org/2000/svg">
<path fill-rule="evenodd" clip-rule="evenodd" d="M11.0026 1.83203C16.0654 1.83203 20.1693 5.93595 20.1693 10.9987C20.1724 13.1143 19.4408 15.1653 18.0994 16.8012L18.1178 16.8214L17.9968 16.924C17.1371 17.9407 16.0658 18.7575 14.8578 19.3174C13.6497 19.8772 12.3341 20.1666 11.0026 20.1654C8.29845 20.1654 5.86928 18.9948 4.19178 17.1339L4.00845 16.9231L3.88745 16.8223L3.90578 16.8003C2.56461 15.1646 1.833 13.1139 1.83595 10.9987C1.83595 5.93595 5.93986 1.83203 11.0026 1.83203ZM11.0026 15.582C9.29761 15.582 7.7567 16.1247 6.60903 16.8709C7.8764 17.8214 9.4184 18.3342 11.0026 18.332C12.5868 18.3342 14.1288 17.8214 15.3962 16.8709C14.0847 16.0307 12.5601 15.5834 11.0026 15.582ZM11.0026 3.66536C9.62259 3.66533 8.27057 4.05469 7.10194 4.78869C5.93331 5.5227 4.99552 6.57156 4.39634 7.81472C3.79717 9.05788 3.56093 10.4449 3.71479 11.8163C3.86865 13.1877 4.40636 14.4879 5.26611 15.5674C6.75203 14.5013 8.7797 13.7487 11.0026 13.7487C13.2255 13.7487 15.2532 14.5013 16.7391 15.5674C17.5989 14.4879 18.1366 13.1877 18.2904 11.8163C18.4443 10.4449 18.2081 9.05788 17.6089 7.81472C17.0097 6.57156 16.0719 5.5227 14.9033 4.78869C13.7347 4.05469 12.3826 3.66533 11.0026 3.66536ZM11.0026 5.4987C11.9751 5.4987 12.9077 5.88501 13.5953 6.57264C14.283 7.26027 14.6693 8.1929 14.6693 9.16536C14.6693 10.1378 14.283 11.0705 13.5953 11.7581C12.9077 12.4457 11.9751 12.832 11.0026 12.832C10.0302 12.832 9.09752 12.4457 8.40989 11.7581C7.72225 11.0705 7.33595 10.1378 7.33595 9.16536C7.33595 8.1929 7.72225 7.26027 8.40989 6.57264C9.09752 5.88501 10.0302 5.4987 11.0026 5.4987ZM11.0026 7.33203C10.5164 7.33203 10.0501 7.52519 9.70625 7.869C9.36243 8.21282 9.16928 8.67913 9.16928 9.16536C9.16928 9.65159 9.36243 10.1179 9.70625 10.4617C10.0501 10.8055 10.5164 10.9987 11.0026 10.9987C11.4888 10.9987 11.9552 10.8055 12.299 10.4617C12.6428 10.1179 12.8359 9.65159 12.8359 9.16536C12.8359 8.67913 12.6428 8.21282 12.299 7.869C11.9552 7.52519 11.4888 7.33203 11.0026 7.33203Z" fill="#111111" fill-opacity='0.4'/>
</svg>
