<svg width="21" height="21" viewBox="0 0 21 21" fill="none" xmlns="http://www.w3.org/2000/svg">
<path d="M17.8107 7.80846L17.4905 7.62996L17.3916 7.57396C17.153 7.4308 16.9521 7.23282 16.8053 6.99646C16.7896 6.97284 16.7756 6.94746 16.7476 6.89846C16.5589 6.59565 16.4673 6.24241 16.4851 5.88609L16.4903 5.51421C16.5008 4.91921 16.5061 4.61996 16.4221 4.35221C16.3478 4.11398 16.2234 3.89441 16.0572 3.70821C15.87 3.49821 15.6101 3.34771 15.0895 3.04846L14.6572 2.79909C14.1392 2.50071 13.8793 2.35109 13.6037 2.29421C13.3602 2.24382 13.1087 2.24591 12.8661 2.30034C12.5922 2.36159 12.3358 2.51559 11.824 2.82184L11.8213 2.82359L11.5116 3.00821C11.4626 3.03796 11.4372 3.05196 11.4127 3.06596C11.1695 3.20159 10.8982 3.27596 10.6191 3.28471C10.5911 3.28646 10.5622 3.28646 10.5053 3.28646L10.3916 3.28559C10.1124 3.27669 9.83935 3.20109 9.59534 3.06509C9.57084 3.05196 9.54721 3.03709 9.49821 3.00734L9.18584 2.82009C8.67046 2.51034 8.41234 2.35634 8.13671 2.29421C7.89316 2.2397 7.64077 2.23791 7.39646 2.28896C7.11996 2.34671 6.86096 2.49721 6.34209 2.79821L6.33946 2.79909L5.91246 3.04671L5.90809 3.05021C5.39359 3.34771 5.13546 3.49821 4.94996 3.70734C4.78466 3.89318 4.66086 4.11213 4.58684 4.34959C4.50371 4.61821 4.50809 4.91746 4.51859 5.51596L4.52471 5.88696C4.52471 5.94384 4.52734 5.97184 4.52646 5.99896C4.52193 6.31687 4.43088 6.62753 4.26309 6.89759C4.23421 6.94659 4.22109 6.97109 4.20621 6.99384C4.05868 7.23199 3.85613 7.43124 3.61559 7.57484L3.51759 7.62996L3.20171 7.80496C2.67496 8.09634 2.41159 8.24246 2.22084 8.45071C2.05125 8.63432 1.92295 8.85212 1.84459 9.08946C1.75709 9.35809 1.75709 9.65821 1.75796 10.2602L1.75971 10.7528C1.76059 11.3505 1.76234 11.6488 1.85071 11.9157C1.92875 12.1516 2.05612 12.3681 2.22434 12.551C2.41509 12.7575 2.67584 12.9027 3.19821 13.1932L3.51146 13.3673C3.56484 13.3971 3.59196 13.4111 3.61734 13.4268C3.89154 13.5912 4.11548 13.8276 4.26484 14.1102L4.32346 14.2152C4.47126 14.4943 4.5408 14.8081 4.52471 15.1235L4.51859 15.4796C4.50809 16.0798 4.50371 16.3808 4.58771 16.6495C4.66209 16.8875 4.78634 17.1071 4.95259 17.2935C5.13984 17.5035 5.40059 17.6531 5.92034 17.9532L6.35259 18.2026C6.87146 18.501 7.13046 18.6506 7.40609 18.7075C7.64961 18.7579 7.90107 18.7558 8.14371 18.7013C8.41846 18.6401 8.67484 18.4861 9.18846 18.1781L9.49821 17.9926L9.59709 17.9348C9.84034 17.8001 10.1116 17.7248 10.3907 17.7161L10.5045 17.7152H10.6182C10.8965 17.724 11.1695 17.8001 11.4145 17.9357L11.495 17.9838L11.824 18.1816C12.3402 18.4913 12.5975 18.6453 12.8731 18.7066C13.1165 18.7617 13.3689 18.7641 13.6133 18.7136C13.889 18.6558 14.1497 18.5045 14.6686 18.2035L15.1017 17.9523C15.6162 17.6531 15.8743 17.5035 16.0598 17.2943C16.2261 17.108 16.3486 16.8892 16.423 16.6521C16.5061 16.3852 16.5017 16.0886 16.4912 15.4988L16.4842 15.1138V15.0027C16.4883 14.6846 16.5791 14.3736 16.7467 14.1032L16.8036 14.007C16.9511 13.7688 17.1537 13.5696 17.3942 13.426L17.4905 13.3726L17.4922 13.3717L17.8081 13.1967C18.3348 12.9045 18.5982 12.7592 18.7898 12.551C18.9596 12.3672 19.0873 12.1485 19.1652 11.9122C19.2527 11.6453 19.2527 11.3461 19.251 10.7511L19.2492 10.2488C19.2483 9.65121 19.2475 9.35196 19.1591 9.08509C19.0807 8.84945 18.953 8.6332 18.7846 8.45071C18.5947 8.24421 18.334 8.09896 17.8125 7.80934L17.8107 7.80846Z" stroke="#111111" stroke-opacity="0.4" stroke-width="1.83333" stroke-linecap="round" stroke-linejoin="round"/>
<path d="M7.00781 10.502C7.00781 11.4302 7.37656 12.3204 8.03294 12.9768C8.68932 13.6332 9.57955 14.002 10.5078 14.002C11.4361 14.002 12.3263 13.6332 12.9827 12.9768C13.6391 12.3204 14.0078 11.4302 14.0078 10.502C14.0078 9.5737 13.6391 8.68346 12.9827 8.02708C12.3263 7.3707 11.4361 7.00195 10.5078 7.00195C9.57955 7.00195 8.68932 7.3707 8.03294 8.02708C7.37656 8.68346 7.00781 9.5737 7.00781 10.502Z" stroke="#111111" stroke-opacity="0.4" stroke-width="1.83333" stroke-linecap="round" stroke-linejoin="round"/>
</svg>
