<svg width="24" height="24" viewBox="0 0 24 24" fill="none" xmlns="http://www.w3.org/2000/svg">
<path d="M20.3529 8.39926L19.9868 8.19368L19.8738 8.12919C19.601 7.96431 19.3713 7.73631 19.2035 7.4641C19.1855 7.43689 19.1695 7.40767 19.1375 7.35124C18.9218 7.0025 18.8171 6.59569 18.8374 6.18532L18.8434 5.75704C18.8554 5.0718 18.8614 4.72716 18.7653 4.4188C18.6804 4.14444 18.5381 3.89156 18.3482 3.67713C18.1341 3.43528 17.837 3.26195 17.2418 2.91731L16.7476 2.63012C16.1554 2.28649 15.8583 2.11417 15.5432 2.04867C15.2647 1.99064 14.9773 1.99304 14.6998 2.05572C14.3867 2.12626 14.0936 2.30362 13.5084 2.65632L13.5054 2.65833L13.1513 2.87096C13.0953 2.90522 13.0662 2.92134 13.0382 2.93747C12.7601 3.09366 12.45 3.17932 12.1309 3.1894C12.0989 3.19141 12.0659 3.19141 12.0009 3.19141L11.8708 3.1904C11.5516 3.18016 11.2394 3.09309 10.9605 2.93646C10.9325 2.92134 10.9055 2.90421 10.8494 2.86995L10.4923 2.6543C9.90308 2.29757 9.60797 2.12022 9.29286 2.04867C9.01441 1.98588 8.72585 1.98382 8.44655 2.04262C8.13043 2.10913 7.83432 2.28246 7.2411 2.62911L7.2381 2.63012L6.74992 2.9153L6.74492 2.91933C6.1567 3.26195 5.86159 3.43528 5.64952 3.67612C5.46052 3.89015 5.31899 4.14231 5.23436 4.41578C5.13933 4.72515 5.14433 5.06978 5.15634 5.75906L5.16334 6.18633C5.16334 6.25183 5.16634 6.28407 5.16534 6.31531C5.16016 6.68143 5.05606 7.03922 4.86423 7.35023C4.83122 7.40666 4.81621 7.43488 4.7992 7.46108C4.63053 7.73535 4.39896 7.96482 4.12396 8.1302L4.01191 8.19368L3.65078 8.39522C3.04856 8.73079 2.74745 8.89908 2.52937 9.13891C2.33548 9.35037 2.1888 9.6012 2.09921 9.87454C1.99917 10.1839 1.99917 10.5296 2.00017 11.2229L2.00217 11.7902C2.00317 12.4785 2.00518 12.8221 2.10621 13.1294C2.19543 13.4011 2.34104 13.6505 2.53337 13.861C2.75145 14.0989 3.04956 14.2661 3.64678 14.6007L4.00491 14.8012C4.06593 14.8355 4.09695 14.8516 4.12596 14.8698C4.43945 15.0591 4.69547 15.3313 4.86623 15.6568L4.93325 15.7777C5.10223 16.0991 5.18173 16.4605 5.16334 16.8237L5.15634 17.2339C5.14433 17.9251 5.13933 18.2718 5.23536 18.5812C5.3204 18.8553 5.46245 19.1082 5.65252 19.3228C5.8666 19.5647 6.16471 19.737 6.75892 20.0826L7.25311 20.3698C7.84632 20.7135 8.14243 20.8858 8.45755 20.9513C8.73596 21.0093 9.02345 21.0069 9.30086 20.9442C9.61498 20.8737 9.90808 20.6963 10.4953 20.3416L10.8494 20.128L10.9625 20.0615C11.2406 19.9063 11.5507 19.8196 11.8698 19.8096L11.9999 19.8085H12.1299C12.448 19.8186 12.7601 19.9063 13.0402 20.0625L13.1323 20.1179L13.5084 20.3457C14.0986 20.7024 14.3927 20.8797 14.7078 20.9503C14.9862 21.0137 15.2747 21.0165 15.5542 20.9583C15.8693 20.8918 16.1674 20.7175 16.7606 20.3708L17.2558 20.0816C17.844 19.737 18.1391 19.5647 18.3512 19.3238C18.5413 19.1092 18.6813 18.8573 18.7663 18.5842C18.8614 18.2768 18.8564 17.9352 18.8444 17.256L18.8364 16.8126V16.6846C18.8411 16.3183 18.9448 15.9601 19.1365 15.6487L19.2015 15.5379C19.3702 15.2636 19.6017 15.0341 19.8768 14.8688L19.9868 14.8073L19.9888 14.8063L20.3499 14.6047C20.9521 14.2682 21.2533 14.1009 21.4723 13.861C21.6664 13.6494 21.8125 13.3975 21.9015 13.1254C22.0015 12.8181 22.0015 12.4734 21.9995 11.7882L21.9975 11.2098C21.9965 10.5215 21.9955 10.1769 21.8945 9.8695C21.8049 9.59813 21.6589 9.34908 21.4663 9.13891C21.2493 8.90109 20.9511 8.73382 20.3549 8.40026L20.3529 8.39926Z" fill="#111111" fill-opacity="0.4"/>
<path d="M7.99609 11.5015C7.99609 12.5706 8.41768 13.5958 9.1681 14.3518C9.91852 15.1077 10.9363 15.5324 11.9976 15.5324C13.0588 15.5324 14.0766 15.1077 14.827 14.3518C15.5775 13.5958 15.999 12.5706 15.999 11.5015C15.999 10.4325 15.5775 9.40724 14.827 8.65131C14.0766 7.89538 13.0588 7.4707 11.9976 7.4707C10.9363 7.4707 9.91852 7.89538 9.1681 8.65131C8.41768 9.40724 7.99609 10.4325 7.99609 11.5015Z" fill="white"/>
</svg>
