<svg width="19" height="19" viewBox="0 0 19 19" fill="none" xmlns="http://www.w3.org/2000/svg">
<g clip-path="url(#clip0_1340_5918)">
<path d="M17.6742 8.30547C17.8679 8.16185 18.0115 7.9615 18.085 7.73251C18.1585 7.50352 18.1582 7.25737 18.0841 7.02858C18.01 6.79979 17.8657 6.59982 17.6717 6.45673C17.4776 6.31363 17.2435 6.23458 17.002 6.23065L12.3122 6.05429C12.2892 6.05271 12.267 6.04452 12.2486 6.03071C12.2301 6.01691 12.216 5.99808 12.208 5.97649L10.5874 1.61937C10.506 1.3977 10.3581 1.20628 10.1638 1.07105C9.96944 0.93581 9.73806 0.863281 9.50095 0.863281C9.26383 0.863281 9.03245 0.93581 8.83812 1.07105C8.64379 1.20628 8.4959 1.3977 8.41448 1.61937L6.79911 5.99205C6.79112 6.01364 6.77704 6.03247 6.75855 6.04627C6.74006 6.06008 6.71795 6.06827 6.69489 6.06985L2.00511 6.24621C1.76364 6.25014 1.52946 6.32919 1.33541 6.47229C1.14135 6.61538 0.99715 6.81535 0.923026 7.04414C0.848901 7.27293 0.848568 7.51908 0.922075 7.74807C0.995581 7.97706 1.13924 8.17741 1.33291 8.32103L5.01178 11.1998C5.03019 11.2143 5.04395 11.2337 5.05136 11.2559C5.05877 11.278 5.0595 11.3018 5.05347 11.3243L3.78723 15.7904C3.72161 16.0178 3.72797 16.2598 3.80543 16.4835C3.8829 16.7072 4.02771 16.9017 4.22017 17.0406C4.41263 17.1795 4.64339 17.2559 4.88107 17.2596C5.11874 17.2633 5.35179 17.194 5.5485 17.0612L9.43581 14.4677C9.45496 14.4545 9.47768 14.4475 9.50095 14.4475C9.52421 14.4475 9.54693 14.4545 9.56608 14.4677L13.4534 17.0612C13.6474 17.1986 13.8797 17.2724 14.1178 17.2724C14.3559 17.2724 14.5881 17.1986 14.7822 17.0612C14.9747 16.9236 15.1196 16.7301 15.1971 16.5071C15.2745 16.2842 15.2807 16.0429 15.2147 15.8163L13.938 11.3347C13.9312 11.3122 13.9316 11.2882 13.9391 11.2659C13.9465 11.2436 13.9607 11.2242 13.9797 11.2102L17.6742 8.30547Z" fill="#FFB800" fill-opacity="0.8"/>
</g>
<defs>
<clipPath id="clip0_1340_5918">
<rect width="19" height="19" fill="white"/>
</clipPath>
</defs>
</svg>
