<svg width="44" height="44" viewBox="0 0 44 44" fill="none" xmlns="http://www.w3.org/2000/svg">
<path d="M30.2734 5.74839C30.7387 6.22773 31 6.87777 31 7.55556C31 8.23334 30.7387 8.88338 30.2734 9.36272L17.9899 22.0154L30.2734 34.6681C30.7255 35.1502 30.9756 35.7959 30.9699 36.4661C30.9643 37.1363 30.7033 37.7774 30.2432 38.2513C29.7831 38.7253 29.1607 38.9941 28.5101 38.9999C27.8594 39.0057 27.2326 38.7481 26.7646 38.2825L12.7266 23.8226C12.2613 23.3433 12 22.6932 12 22.0154C12 21.3376 12.2613 20.6876 12.7266 20.2083L26.7646 5.74839C27.2299 5.2692 27.861 5 28.519 5C29.177 5 29.8081 5.2692 30.2734 5.74839Z" fill="#111111" fill-opacity="0.4"/>
</svg>
