<svg width="40" height="40" viewBox="0 0 40 40" fill="none" xmlns="http://www.w3.org/2000/svg">
<path d="M0 20C0 8.95431 8.95431 0 20 0C31.0457 0 40 8.95431 40 20C40 31.0457 31.0457 40 20 40C8.95431 40 0 31.0457 0 20Z" fill="#111111"/>
<path d="M18.123 17.8756V17.097C17.8562 17.0613 17.585 17.0391 17.305 17.0391C13.9663 17.0347 11.25 19.7532 11.25 23.0992C11.25 25.1503 12.2725 26.9657 13.8374 28.0647C12.8282 26.9835 12.2103 25.5285 12.2103 23.9356C12.2103 20.6386 14.851 17.9512 18.123 17.8756Z" fill="#25F4EE"/>
<path d="M18.2718 26.703C19.7611 26.703 20.9792 25.515 21.0326 24.0378L21.0371 10.8365H23.4466C23.3977 10.5651 23.371 10.2848 23.371 10H20.0812L20.0768 23.2014C20.0235 24.6785 18.8053 25.8665 17.316 25.8665C16.8537 25.8665 16.418 25.7508 16.0312 25.5461C16.5292 26.2447 17.3472 26.703 18.2718 26.703Z" fill="#25F4EE"/>
<path d="M27.9471 15.317V14.5829C27.0269 14.5829 26.1733 14.3115 25.4531 13.8398C26.0933 14.574 26.9602 15.108 27.9471 15.317Z" fill="#25F4EE"/>
<path d="M25.4542 13.8412C24.7517 13.0359 24.3294 11.9858 24.3294 10.8379H23.4492C23.6759 12.0926 24.4228 13.1694 25.4542 13.8412Z" fill="#FE2C55"/>
<path d="M17.3082 20.3272C15.7833 20.3272 14.543 21.5686 14.543 23.0947C14.543 24.1581 15.1476 25.0836 16.0278 25.5463C15.6988 25.0925 15.5032 24.5363 15.5032 23.9312C15.5032 22.4051 16.7436 21.1637 18.2684 21.1637C18.553 21.1637 18.8286 21.2126 19.0864 21.2927V17.929C18.8196 17.8934 18.5485 17.8711 18.2684 17.8711C18.2195 17.8711 18.1751 17.8755 18.1261 17.8755V20.4562C17.8639 20.3761 17.5927 20.3272 17.3082 20.3272Z" fill="#FE2C55"/>
<path d="M27.9464 15.3164V17.8748C26.2393 17.8748 24.6566 17.3275 23.3674 16.402V23.0984C23.3674 26.4399 20.6511 29.1629 17.308 29.1629C16.0187 29.1629 14.8184 28.7536 13.8359 28.0639C14.9429 29.2519 16.5211 29.9994 18.2683 29.9994C21.6069 29.9994 24.3277 27.2808 24.3277 23.9349V17.2385C25.6169 18.164 27.1995 18.7113 28.9067 18.7113V15.4188C28.5732 15.4188 28.2531 15.3831 27.9464 15.3164Z" fill="#FE2C55"/>
<path d="M23.3695 23.1004V16.404C24.6587 17.3295 26.2414 17.8768 27.9485 17.8768V15.3184C26.9616 15.1093 26.0947 14.5754 25.4545 13.8412C24.4231 13.1694 23.6807 12.0926 23.445 10.8379H21.0355L21.0311 24.0392C20.9778 25.5164 19.7596 26.7044 18.2704 26.7044C17.3456 26.7044 16.5321 26.2461 16.0253 25.552C15.1451 25.0848 14.5405 24.1638 14.5405 23.1004C14.5405 21.5743 15.7808 20.3329 17.3056 20.3329C17.5902 20.3329 17.8658 20.3818 18.1236 20.4619V17.8812C14.8516 17.9524 12.2109 20.6399 12.2109 23.9369C12.2109 25.5297 12.8289 26.9803 13.838 28.0659C14.8205 28.7556 16.0209 29.1649 17.3101 29.1649C20.6488 29.1649 23.3695 26.4419 23.3695 23.1004Z" fill="white"/>
</svg>
