<svg width="48" height="48" viewBox="0 0 48 48" fill="none" xmlns="http://www.w3.org/2000/svg">
<circle cx="24" cy="24" r="24" fill="#0077FF"/>
<g clip-path="url(#clip0_2328_987)">
<path d="M6 23.28C6 15.1341 6 11.0612 8.5306 8.5306C11.0612 6 15.1341 6 23.28 6H24.72C32.8659 6 36.9388 6 39.4694 8.5306C42 11.0612 42 15.1341 42 23.28V24.72C42 32.8659 42 36.9388 39.4694 39.4694C36.9388 42 32.8659 42 24.72 42H23.28C15.1341 42 11.0612 42 8.5306 39.4694C6 36.9388 6 32.8659 6 24.72V23.28Z" fill="#0077FF"/>
<path d="M25.1581 31.9362C16.9531 31.9362 12.2731 26.3112 12.0781 16.9512H16.1881C16.3231 23.8212 19.3531 26.7312 21.753 27.3312V16.9512H25.6232V22.8762C27.9932 22.6212 30.4829 19.9212 31.3229 16.9512H35.193C34.548 20.6112 31.848 23.3112 29.928 24.4212C31.848 25.3212 34.9231 27.6762 36.0931 31.9362H31.833C30.918 29.0862 28.6382 26.8812 25.6232 26.5812V31.9362H25.1581Z" fill="white"/>
</g>
<defs>
<clipPath id="clip0_2328_987">
<rect width="36" height="36" fill="white" transform="translate(6 6)"/>
</clipPath>
</defs>
</svg>
