<svg width="40" height="40" viewBox="0 0 40 40" fill="none" xmlns="http://www.w3.org/2000/svg">
<path d="M40 20C40 8.95431 31.0457 0 20 0C8.95431 0 0 8.95431 0 20C0 31.0457 8.95431 40 20 40C31.0457 40 40 31.0457 40 20Z" fill="white"/>
<path d="M10 19.6C10 15.0733 10 12.8133 11.4 11.4C12.82 10 15.08 10 19.6 10H20.4C24.9267 10 27.1867 10 28.6 11.4C30 12.82 30 15.08 30 19.6V20.4C30 24.9267 30 27.1867 28.6 28.6C27.18 30 24.92 30 20.4 30H19.6C15.0733 30 12.8133 30 11.4 28.6C10 27.18 10 24.92 10 20.4V19.6Z" fill="#0077FF"/>
<path d="M20.6417 24.4048C16.0817 24.4048 13.4817 21.2848 13.375 16.0848H15.6683C15.7417 19.8981 17.4217 21.5115 18.755 21.8448V16.0848H20.9083V19.3715C22.2217 19.2315 23.6083 17.7315 24.075 16.0781H26.2217C26.0466 16.934 25.697 17.7445 25.1946 18.4591C24.6922 19.1738 24.0478 19.7771 23.3017 20.2315C24.1343 20.6459 24.8696 21.2321 25.4591 21.9515C26.0486 22.6708 26.4789 23.507 26.7217 24.4048H24.355C23.8483 22.8248 22.5817 21.5981 20.9083 21.4315V24.4048H20.6483H20.6417Z" fill="white"/>
</svg>
