<svg width="20" height="20" viewBox="0 0 20 20" fill="none" xmlns="http://www.w3.org/2000/svg">
<path d="M6.26768 16.6918C6.09628 16.4945 6 16.2268 6 15.9477C6 15.6686 6.09628 15.401 6.26768 15.2036L10.7932 9.99365L6.26768 4.78371C6.10114 4.5852 6.00899 4.31933 6.01107 4.04337C6.01316 3.7674 6.10931 3.50342 6.27882 3.30827C6.44833 3.11313 6.67763 3.00244 6.91734 3.00004C7.15705 2.99764 7.388 3.10373 7.56042 3.29545L12.7323 9.24952C12.9037 9.44689 13 9.71456 13 9.99365C13 10.2727 12.9037 10.5404 12.7323 10.7378L7.56042 16.6918C7.38898 16.8892 7.15648 17 6.91405 17C6.67163 17 6.43913 16.8892 6.26768 16.6918Z" fill="#111111"/>
</svg>
