<svg width="20" height="20" viewBox="0 0 20 20" fill="none" xmlns="http://www.w3.org/2000/svg">
<path d="M19.5669 7.03663H18.1C17.9883 7.03663 17.881 7.0798 17.8003 7.15706L17.4872 7.45702C16.9594 6.23578 16.2022 5.0281 15.1795 3.77782C14.6266 3.10226 13.8091 2.71484 12.9363 2.71484H7.06368C6.19076 2.71484 5.37318 3.1023 4.82064 3.77786C3.76564 5.06747 3.02351 6.24606 2.50822 7.45271L2.19973 7.15706C2.11909 7.0798 2.01168 7.03663 1.89996 7.03663H0.433221C0.193937 7.03663 0 7.23057 0 7.46985V8.4727C0 8.70138 0.177772 8.89059 0.405985 8.90504L1.91362 9C1.68582 9.66565 1.50796 10.6576 1.50796 12.0564C1.50796 13.2702 1.75039 14.068 2.17231 14.5844V16.9212C2.17231 17.1216 2.33475 17.284 2.53513 17.284H4.20395C4.40442 17.284 4.56691 17.1216 4.56691 16.9212V15.4701H15.4331V16.9212C15.4331 17.1216 15.5956 17.284 15.796 17.284H17.4648C17.6652 17.284 17.8277 17.1216 17.8277 16.9212V14.5844C18.2495 14.068 18.4921 13.2702 18.4921 12.0564C18.4921 10.6576 18.3142 9.66565 18.0864 9L19.5941 8.90504C19.8222 8.89059 20 8.70138 20 8.4727V7.46985C20 7.23057 19.8062 7.03663 19.5669 7.03663ZM6.05879 4.79072C6.30641 4.48807 6.6727 4.31442 7.06368 4.31442H12.9363C13.3272 4.31442 13.6937 4.48807 13.9413 4.79072C14.6567 5.66536 15.2218 6.50239 15.6585 7.33618L4.33151 7.33831C4.75867 6.52305 5.32691 5.68532 6.05879 4.79072ZM4.82444 13.6956C3.9938 13.6956 3.32051 13.4243 3.32051 12.7661C3.32051 12.108 3.5648 11.5744 4.39539 11.5744C5.22598 11.5744 6.32828 12.108 6.32828 12.7661C6.32828 13.4242 5.65494 13.6956 4.82444 13.6956ZM11.5765 13.5584H8.4236C7.94828 13.5584 7.56161 13.1718 7.56161 12.6965C7.56161 12.5632 7.66972 12.4551 7.80312 12.4551H12.1971C12.3304 12.4551 12.4384 12.5632 12.4384 12.6965C12.4384 13.1718 12.0518 13.5584 11.5765 13.5584ZM15.1756 13.6956C14.345 13.6956 13.6717 13.4243 13.6717 12.7661C13.6717 12.108 14.7741 11.5744 15.6046 11.5744C16.4352 11.5744 16.6795 12.108 16.6795 12.7661C16.6795 13.4242 16.0062 13.6956 15.1756 13.6956Z" fill="#111111" fill-opacity="0.4"/>
</svg>
