<svg width="20" height="20" viewBox="0 0 20 20" fill="none" xmlns="http://www.w3.org/2000/svg">
<path d="M19.79 8.9603C18.9662 6.8796 17.5805 5.08714 15.798 3.79634C14.0773 2.62459 12.0613 2 10 2C7.93868 2 5.9227 2.62459 4.202 3.79634C2.41713 5.08456 1.03086 6.87781 0.21 8.9603C0.0745436 9.2867 0.00316531 9.6376 0 9.99268C0.004 10.3468 0.072 10.6978 0.2 11.0251C1.02069 13.1079 2.40698 14.9016 4.192 16.19C5.87597 17.418 7.89902 18.0516 9.96 17.9967H10.26C12.2396 18.0006 14.1726 17.3772 15.798 16.2107C17.5829 14.9225 18.9691 13.1292 19.79 11.0467C19.9268 10.7208 19.9982 10.3696 20 10.0144C19.997 9.65226 19.9257 9.29423 19.79 8.9603ZM10.02 13.8971C9.2767 13.8991 8.54962 13.6729 7.93108 13.2474C7.31253 12.8218 6.83043 12.2161 6.546 11.5072C6.26057 10.7977 6.1849 10.0169 6.3285 9.26316C6.47211 8.50938 6.82858 7.81634 7.353 7.27133C7.87726 6.72666 8.54657 6.35523 9.27584 6.20429C10.0051 6.05334 10.7614 6.12968 11.4485 6.42361C12.1356 6.71754 12.7226 7.21578 13.1347 7.85498C13.5468 8.49418 13.7655 9.24547 13.763 10.0133C13.7643 10.5261 13.6671 11.0341 13.4771 11.508C13.2871 11.9818 13.008 12.4121 12.656 12.7739C12.3044 13.1349 11.8867 13.4202 11.4273 13.613C10.9679 13.8058 10.4759 13.9024 9.98 13.8971H10.02Z" fill="#111111" fill-opacity="0.4"/>
</svg>
