<svg width="20" height="20" viewBox="0 0 20 20" fill="none" xmlns="http://www.w3.org/2000/svg">
<g clip-path="url(#clip0_3364_3912)">
<path d="M0.165 17.551C0.351 17.831 0.664 18 1 18H16C16.4 18 16.762 17.762 16.919 17.394L19.919 10.394C19.9847 10.2419 20.0116 10.0759 19.9971 9.9109C19.9827 9.7458 19.9273 9.587 19.8362 9.4487C19.745 9.3104 19.6208 9.1969 19.4748 9.1186C19.3288 9.0403 19.1657 8.9995 19 9H18V6C18 4.897 17.103 4 16 4H9.345L6.789 2H2C0.897 2 0 2.897 0 4V17H0.00699997C0.00476997 17.1951 0.05969 17.3867 0.165 17.551ZM16 6V9H4C3.6 9 3.238 9.238 3.081 9.606L2 12.129V6H16Z" fill="#111111" fill-opacity="0.4"/>
</g>
<defs>
<clipPath id="clip0_3364_3912">
<rect width="20" height="20" fill="white"/>
</clipPath>
</defs>
</svg>
