<svg width="20" height="20" viewBox="0 0 20 20" fill="none" xmlns="http://www.w3.org/2000/svg">
<path d="M9.95171 1.0625C7.82779 1.0625 6.17688 1.0625 4.89171 1.2C3.59188 1.34025 2.56246 1.63083 1.74113 2.28717C0.897792 2.96183 0.503625 3.83908 0.317542 4.9455C0.140625 6.0015 0.140625 7.34533 0.140625 9.021V9.18875C0.140625 10.8222 0.140625 11.9525 0.323958 12.7949C0.422958 13.2487 0.578792 13.6428 0.823542 14.0077C1.06554 14.367 1.37354 14.6695 1.74113 14.9628C2.31954 15.4257 3.00154 15.7053 3.80729 15.8795V18.25C3.8074 18.3704 3.83915 18.4888 3.89936 18.5931C3.95958 18.6974 4.04614 18.7841 4.15039 18.8444C4.25464 18.9047 4.37291 18.9366 4.49336 18.9369C4.61381 18.9371 4.73221 18.9057 4.83671 18.8458C5.37388 18.5387 5.84963 18.2042 6.28504 17.8888L6.56371 17.6862C6.87377 17.4541 7.19046 17.231 7.51338 17.0171C8.28704 16.5147 9.02588 16.1875 9.99479 16.1875H10.0379C12.1618 16.1875 13.8127 16.1875 15.0979 16.05C16.3977 15.9097 17.4271 15.6192 18.2485 14.9628C18.6151 14.6695 18.924 14.367 19.1651 14.0077C19.4108 13.6428 19.5666 13.2487 19.6656 12.7949C19.849 11.9525 19.849 10.8222 19.849 9.18875V9.021C19.849 7.34533 19.849 6.0015 19.672 4.94642C19.486 3.83908 19.0918 2.96183 18.2485 2.28717C17.4271 1.62992 16.3977 1.34025 15.0979 1.20092C13.8127 1.0625 12.1618 1.0625 10.0379 1.0625H9.95171Z" fill="#111111" fill-opacity="0.4"/>
</svg>
