<svg width="20" height="22" viewBox="0 0 20 22" fill="none" xmlns="http://www.w3.org/2000/svg">
<path d="M10 21.044C11.4191 21.044 12.5702 19.92 12.5702 18.5331H7.42978C7.42978 19.92 8.5809 21.044 10 21.044ZM18.654 15.1705C17.8778 14.3561 16.4253 13.1308 16.4253 9.11736C16.4253 6.069 14.2364 3.62875 11.2849 3.03007V2.21247C11.2849 1.51923 10.7096 0.957031 10 0.957031C9.29045 0.957031 8.71509 1.51923 8.71509 2.21247V3.03007C5.76358 3.62875 3.57466 6.069 3.57466 9.11736C3.57466 13.1308 2.12221 14.3561 1.34596 15.1705C1.10489 15.4236 0.998019 15.726 1.00003 16.0222C1.00445 16.6657 1.52154 17.2777 2.28976 17.2777H17.7102C18.4785 17.2777 18.996 16.6657 19 16.0222C19.002 15.726 18.8951 15.4232 18.654 15.1705Z" fill="#111111" fill-opacity="0.4"/>
</svg>
