<svg width="20" height="20" viewBox="0 0 20 20" fill="none" xmlns="http://www.w3.org/2000/svg">
<g clip-path="url(#clip0_3375_3914)">
<path d="M-0.046875 9.62695H15.3545V11.5219H-0.046875V9.62695Z" fill="#111111" fill-opacity="0.4"/>
<path d="M-0.046875 17.0859C-0.046875 17.6382 0.40084 18.0859 0.953125 18.0859H14.3549C14.9072 18.0859 15.3549 17.6382 15.3549 17.0859V13.3047C15.3549 12.7524 14.9072 12.3047 14.3549 12.3047H0.953125C0.40084 12.3047 -0.046875 12.7524 -0.046875 13.3047V17.0859ZM5.7567 13.3684H8.0372C8.13587 13.3684 8.23049 13.4095 8.30026 13.4828C8.37003 13.556 8.40923 13.6554 8.40923 13.759C8.40923 13.8626 8.37003 13.9619 8.30026 14.0352C8.23049 14.1085 8.13587 14.1496 8.0372 14.1496H5.7567C5.65803 14.1496 5.5634 14.1085 5.49364 14.0352C5.42387 13.9619 5.38467 13.8626 5.38467 13.759C5.38467 13.6554 5.42387 13.556 5.49364 13.4828C5.5634 13.4095 5.65803 13.3684 5.7567 13.3684ZM1.0692 13.3684H4.50298C4.60164 13.3684 4.69627 13.4095 4.76604 13.4828C4.8358 13.556 4.875 13.6554 4.875 13.759C4.875 13.8626 4.8358 13.9619 4.76604 14.0352C4.69627 14.1085 4.60164 14.1496 4.50298 14.1496H1.0692C0.97053 14.1496 0.875904 14.1085 0.806136 14.0352C0.736368 13.9619 0.697173 13.8626 0.697173 13.759C0.697173 13.6554 0.736368 13.556 0.806136 13.4828C0.875904 13.4095 0.97053 13.3684 1.0692 13.3684Z" fill="#111111" fill-opacity="0.4"/>
<path d="M-0.046875 7.92969H15.3545V8.84609H-0.046875V7.92969Z" fill="#111111" fill-opacity="0.4"/>
<path d="M12.3482 6.23242C12.0492 6.23352 11.756 6.31926 11.4995 6.4806C11.243 6.64194 11.0326 6.87292 10.8906 7.14922H13.8054C13.6635 6.8729 13.4533 6.64189 13.1968 6.48054C12.9404 6.31919 12.6472 6.23347 12.3482 6.23242Z" fill="#111111" fill-opacity="0.4"/>
<path d="M16.1031 11.5078H17.1075C17.1811 11.1328 17.3577 10.7886 17.6156 10.5179C17.8735 10.2471 18.2012 10.0616 18.5584 9.98438V6C18.2012 5.92284 17.8734 5.7374 17.6155 5.46662C17.3576 5.19585 17.181 4.85164 17.1075 4.47656H7.58371C7.51022 4.85164 7.33361 5.19585 7.07573 5.46662C6.81785 5.7374 6.49002 5.92284 6.13281 6V7.14922H10.0685C10.2334 6.65301 10.5412 6.22295 10.9493 5.91865C11.3573 5.61434 11.8455 5.45086 12.346 5.45086C12.8465 5.45086 13.3346 5.61434 13.7427 5.91865C14.1508 6.22295 14.4586 6.65301 14.6235 7.14922H15.731C15.8297 7.14922 15.9243 7.19037 15.9941 7.26363C16.0639 7.33689 16.1031 7.43624 16.1031 7.53984V11.5078Z" fill="#111111" fill-opacity="0.4"/>
<path d="M5.64065 2.91409C5.08836 2.91407 4.64062 3.36179 4.64062 3.91409V6.77719C4.64062 6.98266 4.80719 7.14922 5.01265 7.14922C5.21811 7.14922 5.38467 6.98266 5.38467 6.77719V5.64883C5.38467 5.54523 5.42387 5.44587 5.49364 5.37261C5.5634 5.29936 5.65803 5.2582 5.7567 5.2582C6.0527 5.2582 6.33657 5.13474 6.54588 4.91497C6.75518 4.6952 6.87277 4.39713 6.87277 4.08633C6.87277 3.98273 6.91196 3.88337 6.98173 3.81011C7.0515 3.73686 7.14612 3.6957 7.24479 3.6957H17.4382C17.5369 3.6957 17.6315 3.73686 17.7013 3.81011C17.7711 3.88337 17.8103 3.98273 17.8103 4.08633C17.8103 4.39713 17.9279 4.6952 18.1372 4.91497C18.3465 5.13474 18.6303 5.2582 18.9263 5.2582C19.025 5.2582 19.1196 5.29936 19.1894 5.37261C19.2592 5.44587 19.2984 5.54523 19.2984 5.64883V10.3363C19.2984 10.4399 19.2592 10.5393 19.1894 10.6125C19.1196 10.6858 19.025 10.727 18.9263 10.727C18.6303 10.727 18.3465 10.8504 18.1372 11.0702C17.9279 11.29 17.8103 11.588 17.8103 11.8988C17.8103 12.0024 17.7711 12.1018 17.7013 12.175C17.6315 12.2483 17.5369 12.2895 17.4382 12.2895H16.4896C16.2738 12.2895 16.099 12.4643 16.099 12.6801C16.099 12.8958 16.2738 13.0707 16.4896 13.0707H19.0424C19.5947 13.0707 20.0424 12.623 20.0424 12.0707V3.91443C20.0424 3.36215 19.5947 2.91444 19.0424 2.91443L5.64065 2.91409Z" fill="#111111" fill-opacity="0.4"/>
</g>
<defs>
<clipPath id="clip0_3375_3914">
<rect width="20" height="20" fill="white"/>
</clipPath>
</defs>
</svg>
