<svg width="20" height="20" viewBox="0 0 20 20" fill="none" xmlns="http://www.w3.org/2000/svg">
<rect width="20" height="20" rx="4" fill="#111111" fill-opacity="0.4"/>
<path d="M10.8255 5.83333C10.8255 5.61232 10.7377 5.40036 10.5814 5.24408C10.4252 5.0878 10.2132 5 9.99219 5C9.77117 5 9.55921 5.0878 9.40293 5.24408C9.24665 5.40036 9.15885 5.61232 9.15885 5.83333V9.16667H5.82552C5.60451 9.16667 5.39255 9.25446 5.23627 9.41074C5.07998 9.56702 4.99219 9.77899 4.99219 10C4.99219 10.221 5.07998 10.433 5.23627 10.5893C5.39255 10.7455 5.60451 10.8333 5.82552 10.8333H9.15885V14.1667C9.15885 14.3877 9.24665 14.5996 9.40293 14.7559C9.55921 14.9122 9.77117 15 9.99219 15C10.2132 15 10.4252 14.9122 10.5814 14.7559C10.7377 14.5996 10.8255 14.3877 10.8255 14.1667V10.8333H14.1589C14.3799 10.8333 14.5918 10.7455 14.7481 10.5893C14.9044 10.433 14.9922 10.221 14.9922 10C14.9922 9.77899 14.9044 9.56702 14.7481 9.41074C14.5918 9.25446 14.3799 9.16667 14.1589 9.16667H10.8255V5.83333Z" fill="white"/>
</svg>
