<svg width="19" height="22" viewBox="0 0 19 22" fill="none" xmlns="http://www.w3.org/2000/svg">
<g clip-path="url(#clip0_3356_4739)">
<path d="M7.75865 14.4845L7.75295 14.4717C7.63827 14.4455 7.52424 14.4168 7.41095 14.3855L7.4024 14.3828C6.31872 14.0822 5.31794 13.5527 4.4726 12.8327C3.54292 12.0413 2.82798 11.0426 2.39011 9.92344C1.95225 8.80432 1.80475 7.59883 1.96049 6.41209C2.11623 5.22534 2.57048 4.09338 3.28361 3.11489C3.99675 2.1364 4.94714 1.3411 6.0519 0.798333C7.15665 0.255565 8.38225 -0.0181897 9.62181 0.000937702C10.8614 0.0200651 12.0773 0.331494 13.1635 0.90807C14.2497 1.48465 15.1732 2.30886 15.8536 3.30885C16.5339 4.30884 16.9504 5.45425 17.0667 6.64519C17.1038 7.02377 16.7817 7.33269 16.3875 7.33269C15.9942 7.33269 15.6798 7.02377 15.6342 6.6461C15.5086 5.60412 15.1001 4.6126 14.4501 3.77177C13.8 2.93094 12.9315 2.2706 11.9321 1.85751C10.9328 1.44442 9.83821 1.29323 8.75892 1.4192C7.67964 1.54518 6.65395 1.94387 5.78555 2.57496C4.91714 3.20605 4.2368 4.04718 3.81329 5.01332C3.38979 5.97946 3.23813 7.03636 3.37366 8.07718C3.50918 9.11801 3.92709 10.1059 4.58512 10.9409C5.24315 11.7759 6.11799 12.4285 7.1212 12.8327L7.1592 12.8483C7.3492 12.9234 7.54427 12.9897 7.7444 13.0472C7.91255 12.6551 8.21642 12.3315 8.6042 12.1315C8.99199 11.9314 9.43968 11.8673 9.87094 11.9502C10.3022 12.033 10.6903 12.2576 10.9692 12.5857C11.248 12.9138 11.4003 13.3251 11.4 13.7494C11.4004 14.1707 11.2504 14.5793 10.9753 14.9065C10.7001 15.2336 10.3165 15.4593 9.88912 15.5456C9.46172 15.6319 9.01656 15.5735 8.62854 15.3802C8.24052 15.187 7.93333 14.8707 7.75865 14.4845ZM6.82195 15.6505C5.13431 15.1441 3.63792 14.1707 2.51845 12.851C1.82468 12.9294 1.18491 13.251 0.720633 13.7545C0.256358 14.2581 -8.59692e-05 14.9087 2.16188e-08 15.5827V16.2381C2.16188e-08 19.6463 3.9995 21.9994 9.5 21.9994C15.0005 21.9994 19 19.517 19 16.2381V15.5827C19 14.8533 18.6997 14.1539 18.1653 13.6381C17.6308 13.1224 16.9059 12.8327 16.15 12.8327H12.6872C12.9113 13.5569 12.8633 14.3342 12.5515 15.0275C12.2398 15.7209 11.6844 16.2858 10.9832 16.6226C10.282 16.9595 9.48013 17.0467 8.71885 16.8688C7.95757 16.691 7.28579 16.2595 6.82195 15.6505ZM14.25 7.33269C14.25 5.94669 13.6135 4.7046 12.6055 3.86402C12.0998 3.44305 11.5078 3.12973 10.868 2.94451C10.2283 2.75929 9.55527 2.70633 8.89289 2.7891C8.23051 2.87186 7.59367 3.08848 7.02393 3.42482C6.45419 3.76116 5.96437 4.20966 5.58644 4.74104C5.2085 5.27242 4.95096 5.87473 4.83062 6.50866C4.71028 7.14258 4.72984 7.79387 4.88803 8.42001C5.04622 9.04615 5.33948 9.63306 5.74867 10.1424C6.15786 10.6518 6.67378 11.0722 7.26275 11.3761C7.87483 10.8388 8.67254 10.5411 9.5 10.541C10.3278 10.5408 11.1259 10.8386 11.7382 11.3761C12.4972 10.9849 13.1318 10.402 13.5742 9.68988C14.0165 8.97773 14.2501 8.16298 14.25 7.33269Z" fill="#111111" fill-opacity="0.4"/>
</g>
<defs>
<clipPath id="clip0_3356_4739">
<rect width="19" height="22" fill="white"/>
</clipPath>
</defs>
</svg>
