<svg width="20" height="20" viewBox="0 0 20 20" fill="none" xmlns="http://www.w3.org/2000/svg">
<g clip-path="url(#clip0_3356_4721)">
<path d="M19.9998 7.19007V9.78175C19.7222 9.68338 19.4279 9.63129 19.1306 9.6279H15.8865C14.988 9.62892 14.1266 9.95915 13.4916 10.5461C12.8566 11.133 12.4999 11.9286 12.4999 12.7581V12.8596C12.5008 13.6885 12.8579 14.4832 13.4928 15.0694C14.1278 15.6555 14.9886 15.9851 15.8865 15.9859H19.1306C19.4279 15.9825 19.7222 15.9305 19.9998 15.8321V17.6153C20.0078 18.2387 19.7479 18.8397 19.2771 19.2866C18.8062 19.7336 18.1626 19.9901 17.4873 20H2.50016C1.82781 19.9903 1.18708 19.7348 0.718449 19.2897C0.249816 18.8445 -0.00847418 18.246 0.000212211 17.6253V5.5846C0.000212211 5.38057 0.0880077 5.18491 0.244285 5.04064C0.400562 4.89637 0.612519 4.81533 0.833528 4.81533H17.4998C18.1722 4.82505 18.8129 5.0805 19.2816 5.52566C19.7502 5.97083 20.0085 6.56937 19.9998 7.19007ZM19.9998 11.9719V13.645C19.9996 13.8578 19.9079 14.0617 19.745 14.2122C19.582 14.3626 19.3611 14.4472 19.1306 14.4474H15.8865C15.4305 14.447 14.9933 14.2796 14.6708 13.9819C14.3484 13.6842 14.167 13.2806 14.1666 12.8596V12.7581C14.167 12.337 14.3483 11.9333 14.6708 11.6355C14.9932 11.3377 15.4304 11.1701 15.8865 11.1695H19.1306C19.3611 11.1697 19.582 11.2543 19.745 11.4047C19.9079 11.5552 19.9996 11.7591 19.9998 11.9719ZM16.6832 12.8088C16.6832 12.6048 16.5954 12.4091 16.4391 12.2649C16.2828 12.1206 16.0709 12.0396 15.8499 12.0396H15.8415C15.6771 12.0411 15.5168 12.0875 15.3809 12.1729C15.2449 12.2584 15.1394 12.379 15.0776 12.5197C15.0158 12.6604 15.0005 12.8149 15.0336 12.9636C15.0667 13.1123 15.1467 13.2486 15.2636 13.3555C15.3804 13.4623 15.5289 13.5348 15.6903 13.5638C15.8518 13.5929 16.0189 13.5772 16.1707 13.5188C16.3225 13.4603 16.4521 13.3617 16.5433 13.2354C16.6345 13.1091 16.6832 12.9607 16.6832 12.8088ZM16.6665 2.39058C16.6686 2.03825 16.5871 1.68976 16.4278 1.36961C16.2684 1.04945 16.035 0.765398 15.744 0.5374C15.4718 0.323818 15.1522 0.167885 14.8077 0.0805679C14.4632 -0.00674964 14.1021 -0.0233317 13.7499 0.0319882L2.0835 1.90824C1.67595 1.97675 1.29322 2.13767 0.969724 2.37655C0.646229 2.61543 0.392109 2.92478 0.230207 3.27678H16.6665V2.39058Z" fill="#111111" fill-opacity="0.4"/>
</g>
<defs>
<clipPath id="clip0_3356_4721">
<rect width="20" height="20" fill="white"/>
</clipPath>
</defs>
</svg>
